<svg width="125" height="150" viewBox="0 0 125 150" fill="none" xmlns="http://www.w3.org/2000/svg">
<path d="M120.647 41.7328C120.55 41.7763 120.444 41.7965 120.34 41.7915C120.167 41.7851 120.008 41.7134 119.896 41.5919C119.784 41.4705 119.729 41.3093 119.743 41.1435C120.196 35.7453 119.295 30.3828 117.117 25.5055C116.818 24.8337 116.492 24.167 116.151 23.5239C116.073 23.3784 116.06 23.2065 116.115 23.0459C116.17 22.8853 116.288 22.7492 116.444 22.6677C116.6 22.5861 116.78 22.5657 116.945 22.6109C117.11 22.6562 117.247 22.7634 117.325 22.9089C117.681 23.579 118.017 24.2683 118.328 24.9656C120.583 30.0274 121.512 35.5912 121.039 41.1911C121.029 41.3047 120.988 41.4151 120.918 41.5105C120.849 41.6059 120.755 41.6827 120.647 41.7328ZM116.249 36.7412C116.185 36.7702 116.116 36.7893 116.046 36.7977C115.961 36.8079 115.874 36.8019 115.793 36.7799C115.711 36.758 115.635 36.7206 115.57 36.6699C115.504 36.6192 115.451 36.5561 115.412 36.4843C115.373 36.4125 115.35 36.3334 115.343 36.2515C114.923 31.2859 113.185 26.564 110.294 22.5296C107.404 18.4951 103.454 15.2806 98.8172 13.188C98.7369 13.1562 98.6649 13.1089 98.6056 13.0488C98.5462 12.9887 98.5008 12.9171 98.472 12.8383C98.4432 12.7596 98.4317 12.6753 98.4381 12.5905C98.4444 12.5058 98.4686 12.4224 98.5092 12.3453C98.5497 12.2682 98.6057 12.199 98.6739 12.142C98.742 12.085 98.8208 12.0412 98.9057 12.0134C98.9905 11.9856 99.0795 11.9743 99.1673 11.9801C99.2552 11.986 99.34 12.009 99.4167 12.0476C104.256 14.2285 108.377 17.5812 111.394 21.7902C114.41 25.9993 116.222 30.9261 116.658 36.1071C116.666 36.2374 116.63 36.3686 116.557 36.4823C116.484 36.596 116.376 36.6865 116.249 36.7412Z" fill="black"/>
<g clip-path="url(#clip0_2851_35327)">
<path d="M31.2151 148.849C44.1389 148.849 54.6144 144.648 54.6144 142.974L54.6144 82.8047L7.82031 82.8047L7.82031 142.974C7.82031 144.648 18.2957 148.849 31.2151 148.849Z" fill="#FF94B2"/>
<path d="M31.2159 149.738C25.5345 149.746 19.8807 148.95 14.4224 147.373C11.6243 146.541 6.93555 144.863 6.93555 142.946L6.93555 82.8074C6.93555 82.5725 7.02884 82.3473 7.1949 82.1812C7.36096 82.0152 7.5862 81.9219 7.82104 81.9219L54.624 81.9219C54.8588 81.9219 55.084 82.0152 55.2501 82.1812C55.4162 82.3473 55.5095 82.5725 55.5095 82.8074L55.5095 142.977C55.5095 144.881 50.8163 146.559 48.0226 147.404C42.5586 148.971 36.9002 149.757 31.2159 149.738ZM8.70654 142.871C9.56104 144.159 18.7968 147.967 31.2159 147.967C43.6349 147.967 52.853 144.159 53.7385 142.871L53.7385 83.6929L8.70654 83.6929L8.70654 142.871Z" fill="black"/>
<path d="M7.82031 82.8107C7.82031 81.1327 18.2957 79.7734 31.2151 79.7734C44.1345 79.7734 54.6232 81.1327 54.6232 82.8107C54.6232 84.4887 44.1389 85.8346 31.2151 85.8346C18.2913 85.8346 7.82031 84.4754 7.82031 82.8018" fill="#FF94B2"/>
<path d="M31.2158 86.7189C25.651 86.7621 20.0886 86.4664 14.5597 85.8334C7.86089 84.9479 6.93555 83.8632 6.93555 82.8095C6.93555 81.7557 7.86089 80.6533 14.5597 79.7855C25.6329 78.5871 36.8032 78.5871 47.8765 79.7855C54.5752 80.671 55.5006 81.7513 55.5006 82.8095C55.5006 83.8676 54.5752 84.9479 47.8765 85.8334C42.346 86.4664 36.7822 86.7621 31.2158 86.7189ZM8.96776 82.8006C10.7919 83.7746 18.8499 84.9479 31.2158 84.9479C43.5818 84.9479 51.6265 83.7658 53.4684 82.8006C51.6265 81.831 43.5818 80.6489 31.2158 80.6489C18.8499 80.6489 10.7919 81.8487 8.96776 82.8095L8.96776 82.8006Z" fill="black"/>
<path d="M31.2177 138.964C39.3023 138.911 44.8588 136.821 44.8588 136.821L50.3622 109.618L45.1422 109.618L47.0991 96.0703C47.0991 96.0703 42.375 97.3144 31.2089 97.3144C20.0428 97.3144 15.3231 96.0703 15.3231 96.0703L17.2889 109.596L12.0645 109.596L17.5722 136.799C17.5722 136.799 23.1287 139.012 31.2089 138.942" fill="#EFC400"/>
<path d="M30.9262 139.844C22.9301 139.844 17.4843 137.732 17.2541 137.63C17.1175 137.575 16.9965 137.488 16.9022 137.375C16.8079 137.262 16.7432 137.128 16.7139 136.983L11.2062 109.781C11.1808 109.652 11.1843 109.52 11.2165 109.393C11.2487 109.266 11.3086 109.147 11.3921 109.046C11.4745 108.944 11.5784 108.862 11.6963 108.806C11.8142 108.749 11.9432 108.719 12.074 108.718L16.2712 108.718L14.4559 96.2064C14.4353 96.062 14.4505 95.9148 14.5004 95.7778C14.5503 95.6408 14.6333 95.5183 14.7419 95.421C14.8505 95.3238 14.9815 95.2549 15.1231 95.2204C15.2648 95.1859 15.4128 95.187 15.5539 95.2235C15.6026 95.2235 20.3445 96.4366 31.2184 96.4366C42.0923 96.4366 46.8385 95.2323 46.8872 95.2235C47.0284 95.187 47.1764 95.1859 47.318 95.2204C47.4597 95.2549 47.5907 95.3238 47.6993 95.421C47.8079 95.5183 47.8909 95.6408 47.9408 95.7778C47.9906 95.9148 48.0059 96.062 47.9852 96.2064L46.1656 108.718L50.3628 108.718C50.4956 108.716 50.6273 108.743 50.7482 108.798C50.869 108.853 50.9759 108.935 51.061 109.037C51.146 109.139 51.207 109.259 51.2394 109.388C51.2719 109.516 51.2749 109.651 51.2483 109.781L45.7272 136.97C45.6974 137.117 45.631 137.253 45.5342 137.367C45.4374 137.481 45.3135 137.568 45.1738 137.621C44.9391 137.71 39.3738 139.768 31.2272 139.835L30.9262 139.844ZM31.2139 138.073C35.5787 138.066 39.9186 137.415 44.0935 136.142L49.2825 110.498L45.1428 110.498C45.0153 110.5 44.8891 110.473 44.7727 110.421C44.6563 110.369 44.5525 110.293 44.4684 110.197C44.3843 110.101 44.3219 109.988 44.2855 109.866C44.2491 109.744 44.2394 109.615 44.2573 109.489L46.0283 97.2114C43.9429 97.5833 39.2233 98.2164 31.1962 98.2164C23.1692 98.2164 18.4539 97.5833 16.3686 97.2114L18.1396 109.489C18.1575 109.615 18.1478 109.744 18.1114 109.866C18.075 109.988 18.0126 110.101 17.9285 110.197C17.8444 110.293 17.7406 110.369 17.6242 110.421C17.5079 110.473 17.3816 110.5 17.2541 110.498L13.1144 110.498L18.3034 136.151C22.4748 137.485 26.8349 138.134 31.2139 138.073Z" fill="black"/>
<path d="M31.216 84.1237C25.0455 84.12 18.8805 83.7519 12.7534 83.0212C12.7002 83.0148 12.6511 82.9893 12.6152 82.9494C12.5794 82.9095 12.5593 82.8579 12.5586 82.8043C12.5591 82.7502 12.5791 82.698 12.6149 82.6574C12.6506 82.6168 12.6998 82.5903 12.7534 82.5829C25.0194 81.113 37.417 81.113 49.683 82.5829C49.7367 82.5903 49.7858 82.6168 49.8216 82.6574C49.8573 82.698 49.8773 82.7502 49.8779 82.8043C49.8772 82.8579 49.857 82.9095 49.8212 82.9494C49.7854 82.9893 49.7363 83.0148 49.683 83.0212C43.5544 83.752 37.388 84.1201 31.216 84.1237ZM14.7104 82.7954C25.6846 83.9644 36.7519 83.9644 47.7261 82.7954C36.7522 81.6207 25.6843 81.6207 14.7104 82.7954Z" fill="black"/>
<path d="M17.582 136.797C17.582 136.797 23.1385 139.011 31.2187 138.94C39.2988 138.869 44.8597 136.797 44.8597 136.797" fill="#FF94B2"/>
<path d="M30.9259 139.846C22.9299 139.846 17.4841 137.734 17.2538 137.633C17.037 137.545 16.8634 137.376 16.7711 137.161C16.6788 136.946 16.6753 136.703 16.7612 136.486C16.8471 136.268 17.0156 136.094 17.2298 136C17.4441 135.906 17.6867 135.901 17.9047 135.986C17.9578 136.008 23.4125 138.124 31.2137 138.067C39.0149 138.009 44.4961 135.999 44.5493 135.981C44.7664 135.909 45.0031 135.923 45.2098 136.022C45.4164 136.12 45.577 136.295 45.6577 136.509C45.7384 136.723 45.7331 136.96 45.6428 137.171C45.5526 137.381 45.3844 137.548 45.1735 137.637C44.9389 137.726 39.3735 139.784 31.227 139.851L30.9259 139.846Z" fill="black"/>
<path d="M31.6016 135.552L31.2297 135.552C24.6194 135.605 20.1609 134.224 20.1255 134.224C20.088 134.213 20.0542 134.192 20.0277 134.163C20.0011 134.134 19.9829 134.098 19.975 134.06L15.6626 112.737C15.6559 112.705 15.6568 112.672 15.6653 112.641C15.6738 112.609 15.6895 112.58 15.7113 112.556C15.7308 112.53 15.7562 112.508 15.7854 112.494C15.8146 112.479 15.8469 112.472 15.8796 112.472L20.6214 112.472L18.7619 99.7383C18.7576 99.7046 18.7609 99.6704 18.7716 99.6382C18.7824 99.606 18.8002 99.5767 18.8239 99.5523C18.848 99.5284 18.8773 99.5104 18.9096 99.4996C18.9418 99.4889 18.9761 99.4857 19.0098 99.4904C27.1167 100.417 35.3028 100.417 43.4097 99.4904C43.4433 99.4857 43.4776 99.4889 43.5099 99.4996C43.5421 99.5104 43.5714 99.5284 43.5956 99.5523C43.6192 99.5767 43.6371 99.606 43.6478 99.6382C43.6586 99.6704 43.6619 99.7046 43.6576 99.7383L41.8069 112.472L46.5664 112.472C46.5991 112.472 46.6314 112.479 46.6606 112.494C46.6898 112.508 46.7152 112.53 46.7347 112.556C46.7556 112.581 46.7708 112.61 46.7793 112.641C46.7877 112.673 46.7891 112.705 46.7834 112.737L42.4666 134.065C42.4578 134.103 42.4393 134.138 42.4129 134.166C42.3865 134.195 42.3532 134.216 42.3161 134.228C38.8204 135.15 35.2164 135.595 31.6016 135.552ZM31.2474 135.109C34.8992 135.175 38.5432 134.749 42.0814 133.843L46.3141 112.914L41.559 112.914C41.5278 112.915 41.497 112.908 41.4687 112.895C41.4404 112.882 41.4153 112.863 41.3951 112.839C41.3738 112.815 41.358 112.787 41.3488 112.757C41.3396 112.726 41.3373 112.694 41.342 112.662L43.1883 99.9641C35.2331 100.85 27.2041 100.85 19.2489 99.9641L21.0951 112.662C21.0999 112.694 21.0976 112.726 21.0884 112.757C21.0792 112.787 21.0634 112.815 21.042 112.839C21.0219 112.863 20.9968 112.882 20.9685 112.895C20.9402 112.908 20.9093 112.915 20.8782 112.914L16.1319 112.914L20.369 133.843C23.9068 134.752 27.5512 135.178 31.2031 135.109L31.2341 135.109L31.2474 135.109Z" fill="black"/>
<path d="M84.3457 147.533C97.2421 146.691 107.422 141.816 107.313 140.146L103.394 80.1047L56.6992 83.1523L60.6179 143.194C60.7269 144.864 71.4538 148.375 84.3457 147.533Z" fill="#FF94B2"/>
<path d="M84.4014 148.419C78.7339 148.802 73.0405 148.382 67.4907 147.171C64.6443 146.522 59.8563 145.153 59.7314 143.24L55.8135 83.2117C55.7982 82.9774 55.8767 82.7466 56.0316 82.57C56.1865 82.3935 56.4051 82.2857 56.6395 82.2705L103.334 79.2228C103.569 79.2075 103.799 79.286 103.976 79.4409C104.152 79.5958 104.26 79.8144 104.276 80.0488L108.194 140.091C108.318 141.99 103.744 143.97 101.012 144.996C95.6641 146.915 90.0719 148.067 84.4014 148.419ZM61.4926 143.032C62.4292 144.262 71.8933 147.46 84.286 146.651C96.6788 145.842 105.647 141.441 106.42 140.1L102.566 81.0477L57.6384 83.98L61.4926 143.032Z" fill="black"/>
<path d="M56.6939 83.1558C56.5846 81.4814 66.9493 79.4428 79.8412 78.6013C92.7332 77.7599 103.279 78.4337 103.389 80.1082C103.498 81.7826 93.1324 83.808 80.236 84.6497C67.3396 85.4914 56.8023 84.817 56.6933 83.147" fill="#FF94B2"/>
<path d="M80.2978 85.5359C74.752 85.9406 69.1866 86.0075 63.6326 85.7362C56.8904 85.2889 55.8964 84.2667 55.8277 83.2152C55.7591 82.1637 56.6107 81.0033 63.2387 79.7011C74.2104 77.7841 85.3569 77.0566 96.4847 77.5313C103.227 77.9786 104.221 78.9964 104.29 80.0523C104.359 81.1082 103.492 82.2473 96.8654 83.5672C91.3879 84.5591 85.8552 85.2165 80.2978 85.5359ZM57.8418 83.0749C59.7426 83.9181 67.8428 84.5741 80.1825 83.7687C92.5222 82.9633 100.473 81.2598 102.248 80.1767C100.347 79.329 92.2422 78.6734 79.9025 79.4787C67.5628 80.2841 59.6177 82.0051 57.8424 83.0837L57.8418 83.0749Z" fill="black"/>
<path d="M83.6987 137.665C91.7627 137.086 97.1713 134.638 97.1713 134.638L100.891 107.135L95.6647 107.476L96.7454 93.8511C96.7454 93.8511 92.1123 95.4002 80.9699 96.1275C69.8276 96.8547 65.0369 95.9206 65.0369 95.9206L67.8794 109.29L62.6661 109.63L69.9338 136.416C69.9338 136.416 75.6227 138.263 83.6811 137.666" fill="#EFC400"/>
<path d="M83.462 138.573C75.483 139.094 69.9112 137.341 69.6748 137.254C69.5349 137.209 69.4086 137.129 69.3071 137.023C69.2056 136.916 69.1323 136.786 69.0937 136.644L61.826 109.858C61.7923 109.732 61.7872 109.599 61.811 109.47C61.8348 109.341 61.887 109.219 61.9637 109.113C62.0393 109.006 62.1376 108.917 62.2515 108.853C62.3655 108.789 62.4922 108.751 62.6227 108.741L66.8111 108.468L64.1847 96.1008C64.1547 95.9582 64.1604 95.8103 64.2013 95.6703C64.2421 95.5304 64.3169 95.4027 64.419 95.2986C64.521 95.1945 64.6472 95.1172 64.7863 95.0735C64.9254 95.0299 65.0732 95.0213 65.2164 95.0485C65.265 95.0453 70.0758 95.9471 80.9266 95.2389C91.7774 94.5307 96.4352 93.0198 96.4832 93.0078C96.6217 92.9623 96.7693 92.9516 96.9129 92.9767C97.0565 93.0019 97.1917 93.0621 97.3064 93.1521C97.4211 93.2421 97.5119 93.359 97.5706 93.4924C97.6293 93.6259 97.6541 93.7718 97.6429 93.9171L96.642 106.521L100.83 106.248C100.963 106.236 101.096 106.255 101.22 106.302C101.344 106.349 101.456 106.424 101.548 106.52C101.639 106.616 101.708 106.732 101.749 106.858C101.789 106.985 101.801 107.119 101.783 107.25L98.0631 134.754C98.0428 134.902 97.9854 135.042 97.8963 135.162C97.8071 135.282 97.6891 135.377 97.5532 135.439C97.3248 135.543 91.9054 137.96 83.7804 138.556L83.7228 137.673L83.7804 138.556L83.462 138.573ZM70.6698 135.707C74.9053 136.76 79.2826 137.124 83.6339 136.787C87.9889 136.496 92.2772 135.564 96.3604 134.022L99.8682 108.094L95.7196 108.365C95.5925 108.375 95.4648 108.357 95.3453 108.312C95.2257 108.268 95.1171 108.198 95.027 108.108C94.9369 108.018 94.8673 107.909 94.8229 107.79C94.7786 107.67 94.7607 107.542 94.7703 107.415L95.7379 95.0486C93.6812 95.5556 89.0128 96.4948 81.0028 97.0175C72.9928 97.5403 68.2463 97.2156 66.1412 96.9803L68.708 109.116C68.7344 109.24 68.734 109.368 68.7068 109.491C68.6797 109.615 68.6264 109.731 68.5506 109.832C68.474 109.933 68.3765 110.016 68.2649 110.077C68.1532 110.137 68.0299 110.172 67.9034 110.18L63.8211 110.447L70.6698 135.707Z" fill="black"/>
<path d="M80.1259 82.9498C73.9682 83.3481 67.7924 83.3822 61.6307 83.0522C61.5771 83.0492 61.5265 83.0269 61.4881 82.9894C61.4498 82.952 61.4263 82.9018 61.4222 82.8484C61.4192 82.7943 61.4357 82.741 61.4687 82.6981C61.5018 82.6553 61.5491 82.6257 61.6021 82.6148C73.7464 80.3491 86.1177 79.5417 98.4534 80.2096C98.5074 80.2135 98.5581 80.2367 98.5965 80.2749C98.6348 80.3131 98.6581 80.3639 98.6622 80.4178C98.665 80.4714 98.6483 80.5241 98.6151 80.5663C98.582 80.6084 98.5346 80.6371 98.4819 80.647C92.4139 81.7754 86.2846 82.5443 80.1259 82.9498ZM63.5688 82.6994C69.0779 82.9157 74.5944 82.8519 80.0971 82.508C85.5992 82.1336 91.0787 81.4798 96.5144 80.5491C85.4873 80.0916 74.4429 80.8124 63.5688 82.6994Z" fill="black"/>
<path d="M69.9512 136.395C69.9512 136.395 75.6401 138.242 83.6984 137.645C91.7568 137.048 97.171 134.618 97.171 134.618" fill="#FF94B2"/>
<path d="M83.4636 138.572C75.4845 139.092 69.9127 137.34 69.6763 137.253C69.4542 137.18 69.27 137.022 69.1639 136.814C69.0578 136.605 69.0384 136.363 69.11 136.141C69.1816 135.918 69.3384 135.733 69.546 135.625C69.7537 135.518 69.9955 135.497 70.2185 135.567C70.273 135.586 75.8451 137.343 83.6348 136.777C91.4246 136.211 96.7544 133.849 96.8063 133.827C97.0183 133.741 97.2554 133.74 97.4681 133.825C97.6807 133.91 97.8522 134.073 97.9467 134.282C98.0413 134.49 98.0514 134.727 97.975 134.943C97.8987 135.159 97.7417 135.337 97.5371 135.439C97.3087 135.543 91.8893 137.96 83.7643 138.556L83.4636 138.572Z" fill="black"/>
<path d="M83.847 134.242L83.4759 134.266C76.8522 134.752 72.3442 133.662 72.3088 133.664C72.2706 133.655 72.2355 133.637 72.2072 133.61C72.1788 133.582 72.1584 133.548 72.1479 133.511L66.4513 112.51C66.4425 112.478 66.4413 112.445 66.4477 112.413C66.4541 112.381 66.4679 112.351 66.4881 112.325C66.5058 112.298 66.5297 112.275 66.5579 112.259C66.5862 112.242 66.6178 112.232 66.6505 112.231L71.3999 111.921L68.7238 99.3347C68.7173 99.3014 68.7185 99.267 68.7271 99.2342C68.7357 99.2014 68.7516 99.1709 68.7736 99.1451C68.7961 99.1196 68.8242 99.0997 68.8557 99.0869C68.8872 99.0741 68.9212 99.0687 68.9551 99.0711C77.1051 99.468 85.2739 98.9348 93.3032 97.482C93.3365 97.4752 93.3709 97.4761 93.4038 97.4847C93.4367 97.4934 93.4671 97.5095 93.4928 97.5317C93.518 97.5545 93.5377 97.5826 93.5505 97.6141C93.5633 97.6455 93.5688 97.6794 93.5667 97.7133L92.5493 110.54L97.2987 110.23C97.3313 110.228 97.364 110.233 97.3941 110.246C97.4242 110.259 97.4509 110.278 97.4721 110.303C97.4954 110.326 97.513 110.354 97.5235 110.385C97.534 110.416 97.5371 110.449 97.5325 110.481L94.6053 132.049C94.599 132.088 94.5828 132.124 94.5584 132.154C94.5339 132.185 94.502 132.208 94.4658 132.222C91.0333 133.371 87.4614 134.05 83.847 134.242ZM83.4647 133.823C87.1129 133.65 90.7213 132.988 94.1933 131.854L97.0583 110.694L92.3442 111.002C92.3132 111.004 92.282 110.999 92.2529 110.988C92.2238 110.977 92.1975 110.96 92.1759 110.937C92.153 110.915 92.1354 110.888 92.1242 110.858C92.1131 110.828 92.1087 110.796 92.1113 110.764L93.1222 97.973C85.243 99.3746 77.2326 99.8974 69.2381 99.5318L71.9074 112.083C71.9142 112.114 71.914 112.146 71.9068 112.177C71.8997 112.209 71.8857 112.238 71.8659 112.263C71.8474 112.288 71.8236 112.309 71.7962 112.323C71.7688 112.338 71.7385 112.347 71.7074 112.349L66.9491 112.659L72.5403 133.267C76.1297 133.943 79.794 134.131 83.4338 133.825L83.4647 133.823Z" fill="black"/>
<path d="M49.3392 80.082C61.273 75.1328 69.3396 67.2387 68.6985 65.6928L45.6485 10.1134L2.41602 28.043L25.4661 83.6223C26.1072 85.1682 37.3931 85.0364 49.331 80.0854" fill="#FF94B2"/>
<path d="M49.675 80.9016C44.432 83.0915 38.9054 84.5282 33.2597 85.1691C30.3602 85.4705 25.3823 85.7183 24.6478 83.9475L1.60289 28.3804C1.51293 28.1635 1.51282 27.9197 1.6026 27.7027C1.69237 27.4857 1.86468 27.3132 2.08162 27.2233L45.2977 9.30054C45.5146 9.21057 45.7584 9.21047 45.9754 9.30025C46.1924 9.39002 46.3649 9.56233 46.4549 9.77926L69.5049 65.3586C70.2342 67.1171 66.546 70.4633 64.2853 72.3164C59.8445 75.853 54.9257 78.7434 49.675 80.9016ZM26.2498 83.1872C27.5351 84.0442 37.5249 84.0233 48.9966 79.2657C60.4682 74.5081 67.5408 67.4529 67.8382 65.9395L45.1664 11.2723L3.56983 28.5233L26.2498 83.1872Z" fill="black"/>
<path d="M2.41157 28.0438C1.76875 26.4938 10.9243 21.2253 22.8622 16.2744C34.8001 11.3234 44.993 8.56769 45.6358 10.1177C46.2787 11.6677 37.1214 16.9321 25.1876 21.8814C13.2538 26.8306 3.0527 29.5897 2.41157 28.0438Z" fill="#FF94B2"/>
<path d="M25.5361 22.6972C20.4109 24.8695 15.1582 26.7278 9.80721 28.2617C3.28024 30.01 2.01164 29.3666 1.60627 28.3891C1.2009 27.4117 1.63502 26.0429 7.49033 22.6752C17.2598 17.3262 27.5779 13.047 38.2655 9.91197C44.7925 8.16371 46.0611 8.80711 46.4664 9.78455C46.8718 10.762 46.436 12.1266 40.5824 15.4985C35.7178 18.2014 30.693 20.6054 25.5361 22.6972ZM3.48006 27.6024C5.55283 27.7925 13.435 25.7985 24.8576 21.0613C36.2802 16.3241 43.2601 12.1544 44.5859 10.5549C42.5172 10.3631 34.6333 12.353 23.2107 17.0902C11.7881 21.8274 4.80176 26.0046 3.47188 27.6058L3.48006 27.6024Z" fill="black"/>
<path d="M45.5366 70.9202C52.98 67.7757 57.3161 63.7151 57.3161 63.7151L51.9672 36.4748L47.1454 38.4745L43.7739 25.225C43.7739 25.225 39.8908 28.1822 29.5766 32.4598C19.2623 36.7374 14.422 37.3979 14.422 37.3979L21.4211 49.143L16.5993 51.1427L32.102 74.1576C32.102 74.1576 38.0826 74.0739 45.5233 70.9113" fill="#EFC400"/>
<path d="M45.5955 71.8598C38.2095 74.923 32.3742 75.0567 32.1184 75.0525C31.9713 75.0546 31.8261 75.02 31.6957 74.9519C31.5654 74.8838 31.4541 74.7843 31.3718 74.6624L15.8674 51.6434C15.7938 51.5333 15.7458 51.4082 15.727 51.2772C15.7081 51.1462 15.7189 51.0126 15.7585 50.8862C15.798 50.7599 15.8654 50.6441 15.9557 50.5472C16.046 50.4504 16.1568 50.3751 16.28 50.3267L20.1571 48.7188L13.6813 37.8542C13.6065 37.7285 13.564 37.5862 13.5576 37.4401C13.5512 37.2939 13.5812 37.1484 13.6448 37.0167C13.7083 36.8849 13.8035 36.7709 13.9219 36.685C14.0403 36.599 14.1781 36.5437 14.3231 36.524C14.364 36.507 19.2088 35.8111 29.2573 31.6438C39.3057 27.4764 43.2221 24.5533 43.262 24.5224C43.3782 24.4338 43.5146 24.3754 43.6589 24.3523C43.8033 24.3293 43.951 24.3423 44.0891 24.3902C44.2269 24.439 44.3505 24.521 44.4488 24.6291C44.5472 24.7372 44.6172 24.8679 44.6528 25.0097L47.7528 37.2694L51.6299 35.6615C51.7505 35.6118 51.8806 35.5894 52.0109 35.5959C52.1411 35.6023 52.2684 35.6375 52.3835 35.6988C52.4993 35.7603 52.6001 35.8466 52.6785 35.9517C52.7569 36.0568 52.811 36.178 52.8368 36.3065L58.1742 63.542C58.2034 63.6897 58.1945 63.8425 58.1482 63.9858C58.102 64.1291 58.0199 64.2582 57.9099 64.361C57.7254 64.5286 53.3733 68.5623 45.8753 71.7486L45.5972 71.8639L45.5955 71.8598ZM32.5729 73.2823C36.9259 72.9146 41.1902 71.8422 45.1993 70.1069C49.2297 68.4311 52.9897 66.1675 56.3568 63.3898L51.3063 37.7129L47.4865 39.2971C47.3684 39.3461 47.241 39.3689 47.1132 39.364C46.9854 39.3591 46.8602 39.3265 46.7462 39.2686C46.6334 39.2114 46.5343 39.1308 46.4553 39.0321C46.3763 38.9334 46.3194 38.8189 46.2884 38.6964L43.221 26.6771C41.4372 27.8195 37.3201 30.2124 29.9095 33.2857C22.4989 36.3591 17.8926 37.584 15.8239 38.0393L22.1631 48.7017C22.2287 48.8115 22.2698 48.9342 22.2834 49.0614C22.2971 49.1886 22.283 49.3173 22.2422 49.4385C22.2014 49.5598 22.1348 49.6707 22.047 49.7638C21.9592 49.8568 21.8522 49.9297 21.7335 49.9775L17.9097 51.5633L32.5729 73.2823Z" fill="black"/>
<path d="M24.5399 20.2971C18.8341 22.6581 12.9938 24.6801 7.04949 26.3525C6.99785 26.367 6.94272 26.3622 6.89434 26.339C6.84596 26.3159 6.8076 26.276 6.78643 26.2267C6.7662 26.1765 6.76469 26.1207 6.78216 26.0695C6.79962 26.0183 6.83489 25.975 6.88157 25.9476C17.6501 19.8903 29.1033 15.1404 40.9981 11.7987C41.05 11.7862 41.1048 11.7926 41.1525 11.8167C41.2003 11.8408 41.2379 11.881 41.2587 11.9303C41.2785 11.9794 41.28 12.034 41.263 12.0841C41.246 12.1343 41.2116 12.1766 41.166 12.2036C35.788 15.2261 30.2363 17.9286 24.5399 20.2971ZM8.78052 25.3949C14.067 23.8246 19.2704 21.9866 24.3703 19.8881C29.4572 17.7619 34.4327 15.3785 39.2776 12.7471C28.6908 15.8659 18.4672 20.1058 8.78052 25.3949Z" fill="black"/>
<path d="M45.601 71.8624C38.2109 74.9273 32.3756 75.061 32.1198 75.0568C31.886 75.0592 31.6607 74.969 31.4932 74.8059C31.3256 74.6428 31.2294 74.42 31.2254 74.1862C31.2215 73.9524 31.3102 73.7266 31.4722 73.5579C31.6342 73.3893 31.8563 73.2916 32.0901 73.2861C32.1432 73.2641 38.0044 73.158 45.181 70.1098C52.3575 67.0616 56.6597 63.1157 56.7003 63.0749C56.872 62.914 57.1005 62.828 57.3356 62.8357C57.5707 62.8434 57.7931 62.9441 57.9539 63.1158C58.1147 63.2874 58.2008 63.5159 58.1931 63.751C58.1854 63.9861 58.0847 64.2085 57.913 64.3694C57.7285 64.537 53.3764 68.5707 45.8784 71.757L45.601 71.8624Z" fill="black"/>
<path d="M44.572 67.6568L44.2408 67.7942C38.1568 70.3796 33.5161 70.828 33.4708 70.8228C33.4314 70.8254 33.3919 70.8177 33.3563 70.8006C33.3206 70.7835 33.29 70.7575 33.2673 70.7251L21.1097 52.6786C21.0925 52.6511 21.0813 52.6202 21.0771 52.5881C21.0729 52.5559 21.0756 52.5232 21.0851 52.4922C21.0931 52.4605 21.1084 52.4311 21.1298 52.4064C21.1512 52.3817 21.1781 52.3624 21.2083 52.3501L25.5802 50.5369L18.9944 39.488C18.9773 39.4579 18.9669 39.4244 18.9642 39.3899C18.9615 39.3554 18.9665 39.3207 18.9788 39.2884C18.9919 39.257 19.0121 39.2291 19.0378 39.2068C19.0634 39.1846 19.0939 39.1685 19.1268 39.1599C23.0529 38.0276 26.9143 36.6822 30.694 35.1296C34.4542 33.5577 38.1261 31.7821 41.6932 29.8106C41.7225 29.7935 41.7554 29.7832 41.7893 29.7808C41.8232 29.7784 41.8572 29.7838 41.8887 29.7967C41.9202 29.8108 41.9483 29.8318 41.9708 29.8581C41.9933 29.8844 42.0097 29.9154 42.0189 29.9488L45.1857 42.4157L49.5821 40.5924C49.6124 40.5798 49.6452 40.5741 49.6779 40.5758C49.7107 40.5774 49.7428 40.5863 49.7717 40.6018C49.8006 40.6174 49.8257 40.6391 49.8452 40.6656C49.8647 40.692 49.878 40.7224 49.8843 40.7547L54.0669 62.1086C54.0752 62.1475 54.0727 62.188 54.0595 62.2256C54.0464 62.2631 54.0231 62.2964 53.9923 62.3216C51.1066 64.5157 47.9378 66.3103 44.572 67.6568ZM44.0752 67.3835L44.4024 67.2478C47.6803 65.9277 50.7715 64.1848 53.5977 62.0635L49.4941 41.1082L45.114 42.9247C45.0847 42.9372 45.053 42.9433 45.0211 42.9424C44.9892 42.9415 44.9579 42.9338 44.9293 42.9197C44.9007 42.9056 44.8755 42.8855 44.8554 42.8608C44.8353 42.8361 44.8208 42.8073 44.8128 42.7764L41.6497 30.3415C38.1474 32.2607 34.5471 33.9954 30.8636 35.5386C27.1692 37.0556 23.3979 38.378 19.5652 39.5005L26.119 50.5532C26.1358 50.5801 26.1465 50.6104 26.1503 50.6419C26.1541 50.6734 26.1509 50.7053 26.141 50.7355C26.1311 50.7657 26.1147 50.7933 26.093 50.8164C26.0713 50.8395 26.0448 50.8576 26.0153 50.8694L21.6352 52.6859L33.5624 70.3966C37.1777 69.8773 40.7068 68.8747 44.0551 67.4159L44.0796 67.4057L44.0752 67.3835Z" fill="black"/>
</g>
<g clip-path="url(#clip1_2851_35327)">
<path d="M107.273 47.4021C105.731 53.1459 101.972 58.0426 96.822 61.0153C91.6719 63.988 85.5523 64.7933 79.809 63.2544C74.0656 61.7155 69.1686 57.9582 66.1948 52.8087C63.221 47.6592 62.4138 41.539 63.9507 35.794C65.4903 30.048 69.249 25.1489 74.4 22.1744C79.5509 19.1998 85.672 18.3936 91.4169 19.933C97.1618 21.4723 102.06 25.2311 105.033 30.3826C108.007 35.534 108.812 41.6562 107.273 47.4021Z" fill="#FF94B2"/>
<path d="M107.273 47.4021C105.731 53.1459 101.972 58.0426 96.822 61.0153C91.6719 63.988 85.5523 64.7933 79.809 63.2544C74.0656 61.7155 69.1686 57.9582 66.1948 52.8087C63.221 47.6592 62.4138 41.539 63.9507 35.794C65.4903 30.048 69.249 25.1489 74.4 22.1744C79.5509 19.1998 85.672 18.3936 91.4169 19.933C97.1618 21.4723 102.06 25.2311 105.033 30.3826C108.007 35.534 108.812 41.6562 107.273 47.4021Z" fill="#FF94B2" stroke="black" stroke-width="2" stroke-linecap="round" stroke-linejoin="round"/>
<path d="M89.7019 19.5692C85.7737 19.9537 81.9986 21.291 78.7041 23.4651C76.5764 25.011 74.9836 27.1822 74.1479 29.6761C73.3121 32.17 73.2749 34.8625 74.0414 37.3784C74.6299 39.1831 75.6223 40.8296 76.9431 42.1927C78.2639 43.5559 79.8782 44.5996 81.6632 45.2445C85.6166 46.6403 89.8947 45.9171 93.9201 45.5093C97.4365 45.1522 102.776 44.4794 105.068 47.9259C105.643 48.875 105.965 49.9559 106.002 51.065" stroke="black" stroke-width="2" stroke-linecap="round" stroke-linejoin="round"/>
</g>
<defs>
<clipPath id="clip0_2851_35327">
<rect width="113.721" height="150" fill="white"/>
</clipPath>
<clipPath id="clip1_2851_35327">
<rect width="48.4615" height="48.4615" fill="white" transform="translate(68.4727 11.9453) rotate(15)"/>
</clipPath>
</defs>
</svg>
