<svg width="66" height="80" viewBox="0 0 66 80" fill="none" xmlns="http://www.w3.org/2000/svg">
<g clip-path="url(#clip0_2705_49187)">
<path d="M31.6319 15.8344C31.4324 15.8344 31.2411 15.7551 31.1 15.614C30.959 15.473 30.8797 15.2817 30.8797 15.0822V9.36304C30.8797 9.16355 30.959 8.97223 31.1 8.83117C31.2411 8.6901 31.4324 8.61086 31.6319 8.61086H32.1835C32.83 8.61092 33.4628 8.42477 34.0062 8.07465C34.5496 7.72454 34.9807 7.22529 35.2479 6.63662C35.515 6.04795 35.607 5.39478 35.5127 4.75524C35.4184 4.1157 35.1418 3.51686 34.7161 3.03035C34.2904 2.54384 33.7336 2.19026 33.1122 2.0119C32.4909 1.83354 31.8313 1.83795 31.2124 2.0246C30.5934 2.21125 30.0414 2.57224 29.6222 3.0644C29.2031 3.55655 28.9346 4.15903 28.8488 4.79978C28.825 4.98188 28.7353 5.14896 28.5967 5.2695C28.4582 5.39005 28.2803 5.45574 28.0966 5.45418C28.0616 5.45664 28.0264 5.45664 27.9913 5.45418C27.7939 5.42738 27.6152 5.32336 27.4944 5.16496C27.3736 5.00655 27.3206 4.80668 27.347 4.60922C27.4708 3.69032 27.8545 2.82589 28.4529 2.11759C29.0512 1.40928 29.8394 0.886543 30.7247 0.610846C31.6099 0.335149 32.5555 0.317954 33.4503 0.561283C34.345 0.804611 35.1516 1.29835 35.7753 1.98443C36.399 2.67052 36.8139 3.52042 36.9711 4.43421C37.1283 5.34801 37.0213 6.28769 36.6628 7.14277C36.3042 7.99784 35.7089 8.73276 34.947 9.26111C34.185 9.78945 33.288 10.0893 32.3615 10.1253V15.0822C32.3616 15.2778 32.2855 15.4658 32.1493 15.6062C32.013 15.7466 31.8275 15.8285 31.6319 15.8344Z" fill="#D2D1D2"/>
<path d="M32.1836 0.752211C33.3753 0.752211 34.5181 1.22559 35.3607 2.0682C36.2033 2.91081 36.6767 4.05364 36.6767 5.24527C36.6767 6.43691 36.2033 7.57973 35.3607 8.42235C34.5181 9.26496 33.3753 9.73833 32.1836 9.73833H32.0081V15.0814C32.0081 15.1811 31.9685 15.2768 31.898 15.3473C31.8274 15.4178 31.7318 15.4575 31.632 15.4575C31.5323 15.4575 31.4366 15.4178 31.3661 15.3473C31.2956 15.2768 31.2559 15.1811 31.2559 15.0814V9.36224C31.2559 9.2625 31.2956 9.16683 31.3661 9.0963C31.4366 9.02577 31.5323 8.98615 31.632 8.98615H32.1836C32.9023 8.98605 33.6057 8.77895 34.2098 8.38961C34.8139 8.00027 35.293 7.44517 35.5899 6.7907C35.8868 6.13622 35.9889 5.41009 35.8839 4.69912C35.779 3.98816 35.4715 3.32246 34.9982 2.78165C34.5249 2.24084 33.9059 1.84781 33.2151 1.64956C32.5243 1.4513 31.7911 1.45622 31.103 1.66373C30.415 1.87123 29.8012 2.27254 29.3353 2.81965C28.8693 3.36676 28.5707 4.03652 28.4754 4.74883C28.4639 4.83883 28.4202 4.92164 28.3525 4.982C28.2848 5.04236 28.1975 5.0762 28.1068 5.07728H28.0541C28.0051 5.07111 27.9578 5.05528 27.915 5.03071C27.8722 5.00614 27.8346 4.97333 27.8045 4.93415C27.7745 4.89498 27.7524 4.85023 27.7398 4.8025C27.7271 4.75477 27.724 4.70499 27.7307 4.65606C27.8776 3.57785 28.4091 2.58901 29.2274 1.87167C30.0456 1.15432 31.0955 0.75676 32.1836 0.752211ZM32.1836 2.41132e-05C30.9134 0.00408214 29.6875 0.467178 28.7319 1.30394C27.7762 2.1407 27.1553 3.29472 26.9835 4.55326C26.9451 4.84971 27.0255 5.14933 27.2074 5.38661C27.3892 5.62389 27.6576 5.77951 27.9538 5.81944C28.0048 5.82227 28.0558 5.82227 28.1068 5.81944C28.3798 5.81824 28.6431 5.71832 28.8482 5.53813C29.0533 5.35794 29.1862 5.10965 29.2225 4.83909C29.2987 4.26991 29.5371 3.73471 29.9095 3.29751C30.2818 2.86031 30.7722 2.53963 31.3219 2.37383C31.8717 2.20804 32.4577 2.20414 33.0096 2.36261C33.5616 2.52108 34.0562 2.83521 34.4343 3.26741C34.8124 3.69962 35.0579 4.2316 35.1416 4.79972C35.2253 5.36784 35.1435 5.94804 34.9061 6.47091C34.6687 6.99378 34.2857 7.43718 33.8029 7.74807C33.32 8.05896 32.7579 8.22416 32.1836 8.22393H31.632C31.333 8.22459 31.0464 8.34368 30.835 8.55513C30.6235 8.76658 30.5044 9.05318 30.5038 9.35221V15.0814C30.5038 15.3806 30.6226 15.6676 30.8342 15.8792C31.0458 16.0908 31.3328 16.2096 31.632 16.2096C31.9313 16.2096 32.2183 16.0908 32.4298 15.8792C32.6414 15.6676 32.7603 15.3806 32.7603 15.0814V10.4604C34.0965 10.3168 35.3266 9.66569 36.1967 8.64156C37.0669 7.61743 37.5108 6.29837 37.4368 4.95652C37.3628 3.61467 36.7767 2.3524 35.7992 1.43013C34.8217 0.507856 33.5275 -0.00404832 32.1836 2.41132e-05Z" fill="#050505"/>
<path d="M3.64575 27.8475C4.05256 27.5159 4.49688 27.2332 4.96959 27.0051C5.57909 26.7086 6.21996 26.4815 6.88015 26.3281C11.9674 28.9583 16.9945 28.7903 20.1989 28.2362C20.3141 29.0681 20.1824 29.9155 19.8203 30.6733C19.0254 32.1776 17.1926 32.7142 15.608 32.8696C14.8998 32.9377 14.1875 32.9545 13.4768 32.9198C12.2354 32.8519 10.9999 32.7012 9.77857 32.4685C7.91566 32.1425 6.04271 31.7689 4.29764 31.0218C3.78329 30.8444 3.32783 30.5286 2.98131 30.1091C2.38207 29.2692 2.91613 28.4593 3.64575 27.8475Z" fill="#FF8AB0"/>
<path d="M6.8802 26.3275C6.2196 26.4841 5.57872 26.7146 4.96965 27.0145C4.49693 27.2426 4.05261 27.5253 3.6458 27.8569L3.53046 27.7466C1.93834 26.2422 0.308598 23.8001 0.42644 21.5035C0.435625 21.0137 0.612642 20.542 0.927898 20.1671C2.18154 18.7856 4.34282 19.633 5.76947 20.2523C7.68253 21.0848 9.69589 21.3405 11.6616 20.478C12.057 20.2666 12.4785 20.1081 12.9152 20.0066H13.0231C13.2838 20.0021 13.5407 20.07 13.7651 20.2028C13.9895 20.3356 14.1727 20.5281 14.2943 20.7588C14.4953 21.1411 14.6703 21.5365 14.8183 21.9422C15.8964 24.3894 19.0807 25.6154 21.3899 26.5406C21.5452 26.6046 21.6761 26.7163 21.7638 26.8596C21.8515 27.0028 21.8914 27.1702 21.8777 27.3376C21.864 27.5051 21.7975 27.6638 21.6877 27.7909C21.578 27.9181 21.4306 28.007 21.267 28.045C20.9386 28.1177 20.58 28.1904 20.1964 28.2556C16.9921 28.8097 11.965 28.9777 6.87769 26.3475L6.8802 26.3275Z" fill="#FF8AB0"/>
<path d="M42.4384 47.9969C42.5336 48.0495 47.3376 46.0537 50.9631 42.2903C54.5887 38.5268 57.4996 41.5606 59.2171 45.7629C60.7215 49.4436 61.1076 54.0169 60.6688 57.9483C60.2301 61.8797 58.6705 65.8061 55.9351 68.697C49.6443 75.3087 38.8103 76.5473 30.2053 76.8081C21.3094 77.0764 11.3706 75.8052 4.99452 68.9101C1.98577 65.6507 0.135396 61.0473 0.764726 56.5718C1.39405 52.0963 5.20764 49.1327 8.60501 46.5928C11.2627 44.602 14.8557 42.1599 15.322 38.5695C15.5928 36.511 14.6601 34.5578 13.4792 32.9306V32.9055C14.1899 32.9402 14.9021 32.9234 15.6104 32.8554C17.195 32.6999 19.0278 32.1734 19.8226 30.659C20.1848 29.9012 20.3164 29.0538 20.2012 28.2219C20.5848 28.1567 20.9534 28.084 21.2718 28.0113C21.4355 27.9733 21.5828 27.8844 21.6926 27.7572C21.8023 27.6301 21.8688 27.4714 21.8825 27.3039C21.8962 27.1365 21.8563 26.9691 21.7686 26.8258C21.6809 26.6826 21.55 26.5709 21.3947 26.5069C19.0754 25.5717 15.9012 24.3506 14.8231 21.9035C14.6727 21.4975 14.4951 21.1022 14.2915 20.7201C14.17 20.4894 13.9868 20.2969 13.7624 20.1641C13.538 20.0313 13.2811 19.9634 13.0203 19.9679C13.251 13.3913 19.078 11.2852 19.078 11.2852C18.7244 9.72062 19.2485 7.67969 20.0282 6.61409C20.6325 5.7917 22.0717 5.08715 22.9442 5.92208C23.2033 6.20407 23.4143 6.52681 23.5685 6.87735C25.3236 10.202 29.0845 11.4607 32.0933 13.3637C35.102 15.2667 38.2462 17.6637 39.7179 20.9608C41.9545 25.9754 40.9039 31.6995 38.0331 36.1825C36.7543 38.1884 34.8689 40.3697 34.3198 42.7265C34.2205 43.0812 34.2021 43.4537 34.2659 43.8165C34.3297 44.1792 34.474 44.5231 34.6883 44.8226C35.2424 45.5071 36.1927 45.6977 37.0452 45.9008C38.9035 46.3397 40.6929 47.0314 42.3631 47.9567L42.4509 48.0069L42.4384 47.9969Z" fill="#EFC400"/>
<path d="M49.7948 53.0561C49.7304 53.0567 49.6669 53.0421 49.6092 53.0134C48.1606 52.2564 46.768 51.3967 45.4421 50.441C44.3765 49.7113 43.2733 48.9567 42.145 48.3298C40.5106 47.423 38.7579 46.7479 36.9374 46.324L36.802 46.2914C35.942 46.0908 34.9642 45.8627 34.3474 45.0979C34.0908 44.7494 33.917 44.347 33.8393 43.9212C33.7615 43.4954 33.7818 43.0575 33.8986 42.6408C34.3298 40.7854 35.5108 39.093 36.6566 37.4557C37.0201 36.9367 37.3611 36.4528 37.6595 35.9664C40.7134 31.2026 41.3302 25.6589 39.3143 21.1458C37.835 17.8337 34.5505 15.4418 31.8476 13.7318C31.0954 13.2604 30.2956 12.8191 29.5108 12.3904C27.0787 11.0515 24.5715 9.6775 23.1874 7.07494L23.1022 6.90946C22.9918 6.66379 22.8447 6.43637 22.6659 6.235C22.5619 6.13839 22.4379 6.06585 22.3027 6.02252C22.1675 5.97919 22.0244 5.96613 21.8836 5.98427C21.2857 6.07442 20.7462 6.39362 20.3793 6.87435C19.6421 7.87727 19.1256 9.93575 19.5494 11.3875C19.6177 11.7008 19.7601 11.9932 19.9647 12.2401C20.1693 12.487 20.4301 12.6813 20.7253 12.8066C20.7788 12.8254 20.8279 12.8549 20.8697 12.8932C20.9116 12.9315 20.9452 12.9779 20.9687 13.0295C20.9922 13.0811 21.005 13.1369 21.0064 13.1936C21.0078 13.2503 20.9977 13.3067 20.9767 13.3594C20.9558 13.4122 20.9244 13.4601 20.8845 13.5004C20.8446 13.5407 20.7969 13.5725 20.7444 13.5939C20.6919 13.6153 20.6356 13.6259 20.5789 13.625C20.5222 13.6242 20.4662 13.6119 20.4144 13.5889C19.9995 13.4158 19.6315 13.1471 19.3404 12.8046C19.0493 12.462 18.8434 12.0555 18.7395 11.6181C18.238 9.84549 18.8298 7.55884 19.7023 6.37039C19.9543 6.03518 20.271 5.75395 20.6336 5.54335C20.9962 5.33275 21.3974 5.19706 21.8134 5.14433C22.0738 5.11462 22.3374 5.14257 22.5857 5.2262C22.834 5.30983 23.0608 5.44709 23.2501 5.62823C23.4995 5.88885 23.7029 6.1898 23.8519 6.51832L23.9321 6.67377C25.1857 9.05068 27.5927 10.3645 29.922 11.6332C30.7193 12.0669 31.5417 12.5157 32.3064 13.0022C35.1071 14.7773 38.5195 17.2645 40.0916 20.7748C42.2253 25.5386 41.5834 31.3881 38.3766 36.3951C38.0582 36.8966 37.7122 37.3981 37.3461 37.9121C36.2479 39.4841 35.1121 41.1088 34.7185 42.8088C34.6341 43.1011 34.616 43.4084 34.6655 43.7086C34.7149 44.0087 34.8307 44.2941 35.0043 44.5438C35.438 45.0829 36.2304 45.2684 36.9951 45.4465L37.128 45.4765C39.025 45.9225 40.8511 46.6296 42.5537 47.5776C43.7171 48.2245 44.8354 48.9893 45.9185 49.7314C47.2113 50.6623 48.5687 51.5002 49.9803 52.2387C50.066 52.2805 50.135 52.3501 50.176 52.4361C50.217 52.5222 50.2276 52.6196 50.206 52.7125C50.1845 52.8053 50.1321 52.8881 50.0574 52.9474C49.9827 53.0066 49.8901 53.0387 49.7948 53.0385V53.0561Z" fill="black"/>
<path d="M16.2797 28.9919C11.0047 29.0285 5.91591 27.0439 2.05837 23.4458C2.01721 23.4086 1.98379 23.3636 1.96 23.3135C1.93621 23.2634 1.92253 23.2091 1.91974 23.1537C1.91695 23.0982 1.92509 23.0428 1.94372 22.9906C1.96234 22.9383 1.99108 22.8902 2.02828 22.8491C2.06549 22.8079 2.11044 22.7745 2.16056 22.7507C2.21069 22.7269 2.26501 22.7132 2.32042 22.7104C2.37583 22.7076 2.43125 22.7158 2.48351 22.7344C2.53578 22.753 2.58386 22.7818 2.62502 22.819C9.46741 29.0546 17.1899 28.493 21.1789 27.6029C21.2565 27.5858 21.3265 27.5443 21.3787 27.4845C21.4309 27.4247 21.4625 27.3498 21.469 27.2707C21.4754 27.1915 21.4563 27.1124 21.4145 27.045C21.3727 26.9775 21.3103 26.9252 21.2366 26.8958L21.1062 26.8432C18.7669 25.9105 15.5626 24.6343 14.4343 22.0793C14.3742 21.9439 14.319 21.8035 14.2664 21.6631C14.177 21.4162 14.0672 21.1771 13.9379 20.9485C13.8485 20.7753 13.7099 20.6324 13.5394 20.5379C13.369 20.4433 13.1744 20.4012 12.9801 20.417C12.6735 20.4808 12.3773 20.5871 12.1001 20.7329L11.8268 20.8583C9.93878 21.6882 7.84018 21.6105 5.59615 20.6351C3.90875 19.9005 2.21382 19.3815 1.23598 20.4446C0.989484 20.7474 0.852537 21.1247 0.847351 21.5152C0.737031 23.694 2.38181 26.0784 3.8235 27.4324L3.93633 27.5377C3.98058 27.5739 4.01699 27.6188 4.04334 27.6695C4.06969 27.7203 4.08542 27.7759 4.08958 27.8329C4.09375 27.89 4.08625 27.9473 4.06755 28.0013C4.04885 28.0554 4.01934 28.105 3.98082 28.1473C3.94229 28.1896 3.89557 28.2236 3.84348 28.2472C3.7914 28.2708 3.73505 28.2836 3.67787 28.2847C3.62068 28.2859 3.56387 28.2754 3.51089 28.2538C3.4579 28.2323 3.40986 28.2002 3.36968 28.1595L3.24432 28.0442C1.59703 26.4821 -0.117955 23.9347 -0.000112042 21.4726C0.0138671 20.8856 0.229955 20.3215 0.611666 19.8754C2.11604 18.2031 4.69604 19.3213 5.92962 19.8604C7.9505 20.7379 9.82093 20.8131 11.4858 20.0835L11.7365 19.9682C12.0869 19.7856 12.4618 19.6547 12.8497 19.5796C13.208 19.5348 13.5715 19.5992 13.8927 19.7643C14.2138 19.9293 14.4778 20.1874 14.65 20.5047C14.8062 20.7758 14.9379 21.0603 15.0436 21.3547C15.0938 21.4826 15.1439 21.6054 15.1991 21.7358C16.1869 23.9924 19.2107 25.1833 21.4096 26.0634L21.5425 26.1161C21.7834 26.2123 21.9871 26.3832 22.1237 26.6038C22.2604 26.8243 22.3227 27.0828 22.3017 27.3413C22.2807 27.5999 22.1773 27.8449 22.0069 28.0404C21.8364 28.236 21.6077 28.3717 21.3545 28.4278C19.6882 28.7988 17.9867 28.9879 16.2797 28.9919Z" fill="black"/>
<path d="M14.204 33.3438C12.6949 33.3191 11.1908 33.1639 9.70845 32.8799C7.88816 32.5615 5.94753 32.1854 4.12974 31.4031C3.54356 31.1976 3.02673 30.832 2.63791 30.3475C2.48936 30.1502 2.38702 29.9221 2.33841 29.6799C2.28981 29.4378 2.29619 29.1878 2.35709 28.9485C2.668 27.735 4.29522 26.8599 4.78665 26.6217C5.42685 26.309 6.0995 26.0677 6.79248 25.9021C6.9012 25.8762 7.01578 25.8945 7.11099 25.9531C7.20621 26.0116 7.27427 26.1056 7.30021 26.2143C7.32614 26.323 7.30782 26.4376 7.24928 26.5328C7.19074 26.628 7.09677 26.6961 6.98805 26.722C6.35679 26.8742 5.74393 27.0944 5.16024 27.3789C4.3554 27.7701 3.35499 28.4721 3.17697 29.1591C3.14654 29.28 3.14451 29.4063 3.17104 29.5281C3.19758 29.6499 3.25196 29.7639 3.32992 29.8611C3.63369 30.2143 4.02686 30.4793 4.46823 30.6284C6.22333 31.3805 8.08624 31.7391 9.85889 32.05C11.5739 32.3484 13.5973 32.6292 15.578 32.4361C16.9445 32.3007 18.7272 31.8519 19.4568 30.4629C19.7835 29.7792 19.8996 29.0138 19.7903 28.264C19.7789 28.1526 19.8124 28.0413 19.8831 27.9545C19.9539 27.8678 20.0562 27.8127 20.1676 27.8014C20.279 27.7901 20.3903 27.8235 20.477 27.8943C20.5638 27.965 20.6189 28.0674 20.6302 28.1787C20.7564 29.093 20.6081 30.0242 20.204 30.854C19.4869 32.2155 17.9173 33.0529 15.6608 33.2736C15.1718 33.3212 14.6854 33.3438 14.204 33.3438Z" fill="black"/>
<path d="M28.1192 77.2599C17.368 77.2599 9.69066 74.6122 4.68862 69.194C1.36396 65.591 -0.25073 60.8497 0.348512 56.5096C1.01796 51.7457 5.08728 48.6969 8.35428 46.2523L8.87579 45.8637C11.3831 44.0083 14.4921 41.6965 14.9083 38.5173C15.124 36.8851 14.5297 35.0898 13.1407 33.1818C13.1078 33.137 13.084 33.0862 13.0707 33.0322C13.0574 32.9782 13.0549 32.9222 13.0633 32.8672C13.0716 32.8123 13.0908 32.7595 13.1195 32.712C13.1483 32.6644 13.1862 32.623 13.2309 32.5901C13.2757 32.5571 13.3266 32.5334 13.3805 32.5201C13.4345 32.5068 13.4906 32.5043 13.5455 32.5127C13.6004 32.521 13.6532 32.5402 13.7008 32.5689C13.7483 32.5977 13.7897 32.6356 13.8227 32.6803C15.3421 34.7689 15.989 36.7672 15.7458 38.6226C15.2944 42.1604 12.0099 44.5899 9.37976 46.5406L8.86075 46.9267C5.71661 49.2786 1.80524 52.192 1.18344 56.6274C0.609269 60.7193 2.15125 65.1923 5.30792 68.6223C10.4554 74.1985 18.5965 76.7384 30.1952 76.3949C46.6656 75.8934 52.6004 71.601 55.6317 68.4142C58.139 65.7765 59.7812 62.0482 60.2426 57.9187C60.7164 53.6739 60.1999 49.3062 58.8209 45.9364C57.6551 43.0856 56.1783 41.3555 54.6588 41.0647C53.5807 40.8591 52.4374 41.3756 51.2615 42.5992C49.5784 44.3027 47.6703 45.7681 45.59 46.9543C44.6748 47.4859 43.9377 47.8469 43.4789 48.055C42.4759 48.5164 42.4032 48.4762 42.2252 48.3785C42.1284 48.3223 42.0577 48.2302 42.0286 48.1222C41.9995 48.0141 42.0143 47.899 42.0698 47.8018C42.103 47.7436 42.1497 47.6944 42.206 47.6581C42.2623 47.6219 42.3265 47.5998 42.3932 47.5937C42.8947 47.4432 47.2799 45.5176 50.6447 42.015C52.0337 40.5733 53.4328 39.974 54.8093 40.2373C57.126 40.6786 58.6906 43.4065 59.5932 45.6179C61.0223 49.1281 61.5614 53.6413 61.0725 58.0115C60.5911 62.324 58.8736 66.2228 56.2359 68.9959C49.6994 75.8633 38.2587 76.9766 30.2203 77.2273C29.5083 77.2474 28.8062 77.2599 28.1192 77.2599Z" fill="black"/>
<path d="M38.2362 73.7891C35.7491 73.8189 33.2816 73.3447 30.9827 72.395C27.8436 71.0461 25.0755 68.9049 23.3881 66.5229C23.0507 66.0495 22.7578 65.5459 22.5131 65.0186C22.4668 64.9168 22.4629 64.8009 22.5022 64.6963C22.5415 64.5917 22.6207 64.5069 22.7224 64.4607C22.8242 64.4145 22.9401 64.4106 23.0447 64.4498C23.1493 64.4891 23.2341 64.5683 23.2803 64.6701C23.5006 65.1491 23.765 65.6065 24.0701 66.0365C25.6472 68.2605 28.355 70.3491 31.3111 71.6228C36.0048 73.6436 42.3657 73.3377 47.5207 70.8455C50.9144 69.2113 53.7258 66.5766 55.5766 63.2961C56.6598 61.3404 58.0614 57.4691 57.2139 55.4107C57.0942 55.1038 56.903 54.83 56.6562 54.6119C56.4094 54.3939 56.114 54.2379 55.7948 54.157C55.2081 53.9865 54.5411 54.2147 53.967 54.4604C52.2509 55.1904 50.3589 55.4031 48.5236 55.0722C46.7184 54.7788 45.0009 54.1169 43.3411 53.4775L42.9424 53.3221C39.9989 52.1938 36.4837 50.9728 32.7453 50.5039C29.1624 50.0526 26.4771 50.5666 24.7521 52.0384C23.6877 52.9493 23.0174 54.2369 22.8816 55.6313C22.8807 55.6867 22.8686 55.7414 22.8461 55.792C22.8237 55.8427 22.7912 55.8883 22.7508 55.9262C22.7103 55.9641 22.6626 55.9935 22.6106 56.0126C22.5586 56.0317 22.5032 56.0402 22.4479 56.0375C22.3366 56.0342 22.2311 55.987 22.1545 55.9062C22.078 55.8254 22.0365 55.7175 22.0392 55.6062C22.1041 54.7976 22.328 54.0097 22.698 53.2877C23.0681 52.5658 23.5769 51.9239 24.1955 51.399C26.1035 49.7592 29.017 49.1725 32.8556 49.6564C36.6943 50.1403 40.2571 51.3789 43.2483 52.5273L43.6495 52.6802C45.2692 53.3045 46.9441 53.9514 48.664 54.2322C50.3418 54.5418 52.0737 54.3472 53.641 53.6731C54.3531 53.3697 55.193 53.0914 56.0355 53.3371C56.478 53.4539 56.8867 53.6738 57.2279 53.9788C57.5691 54.2839 57.8333 54.6654 57.9987 55.0922C59.0793 57.7174 57.1512 62.2004 56.3188 63.7073C54.3826 67.1393 51.4405 69.895 47.8893 71.6027C44.8743 73.0405 41.5765 73.7874 38.2362 73.7891Z" fill="black"/>
<path d="M22.8112 23.6303C24.5602 23.6303 25.9779 22.2125 25.9779 20.4636C25.9779 18.7147 24.5602 17.2969 22.8112 17.2969C21.0623 17.2969 19.6445 18.7147 19.6445 20.4636C19.6445 22.2125 21.0623 23.6303 22.8112 23.6303Z" fill="white"/>
<path d="M22.8164 23.9735C22.1221 23.9735 21.4434 23.7677 20.8662 23.382C20.2889 22.9962 19.839 22.448 19.5734 21.8066C19.3077 21.1652 19.2382 20.4594 19.3736 19.7785C19.509 19.0976 19.8434 18.4722 20.3343 17.9812C20.8252 17.4903 21.4506 17.156 22.1316 17.0206C22.8125 16.8851 23.5182 16.9546 24.1597 17.2203C24.8011 17.486 25.3493 17.9359 25.735 18.5132C26.1207 19.0904 26.3266 19.7691 26.3266 20.4633C26.3266 21.3943 25.9567 22.2871 25.2984 22.9454C24.6402 23.6037 23.7473 23.9735 22.8164 23.9735ZM22.8164 17.6426C22.258 17.6426 21.7121 17.8082 21.2479 18.1184C20.7836 18.4286 20.4217 18.8696 20.2081 19.3854C19.9944 19.9013 19.9385 20.469 20.0474 21.0166C20.1563 21.5643 20.4252 22.0673 20.82 22.4621C21.2149 22.857 21.7179 23.1259 22.2656 23.2348C22.8132 23.3437 23.3809 23.2878 23.8967 23.0741C24.4126 22.8605 24.8535 22.4986 25.1638 22.0343C25.474 21.57 25.6396 21.0242 25.6396 20.4658C25.6389 19.7173 25.3412 18.9996 24.8119 18.4703C24.2826 17.941 23.5649 17.6433 22.8164 17.6426Z" fill="black"/>
<path d="M13.0381 20.3974H13.0231C12.9116 20.3928 12.8064 20.3444 12.7303 20.2627C12.6543 20.181 12.6135 20.0726 12.6169 19.9611C12.8676 13.1789 18.8851 10.9198 18.9528 10.8973C19.0573 10.8619 19.1714 10.8689 19.2708 10.9168C19.3701 10.9646 19.4467 11.0495 19.4841 11.1533C19.5216 11.257 19.5168 11.3713 19.4709 11.4716C19.425 11.5718 19.3416 11.6501 19.2386 11.6896C19.008 11.7723 13.675 13.7907 13.4719 19.9887C13.468 20.1002 13.4202 20.2056 13.339 20.2822C13.2578 20.3587 13.1497 20.4001 13.0381 20.3974Z" fill="black"/>
<path fill-rule="evenodd" clip-rule="evenodd" d="M46.6908 46.3203C46.6908 46.3203 43.1806 48.1331 47.6311 50.8535L46.6733 50.6529L42.9775 47.9902L45.5174 46.3855L46.6908 46.3203Z" fill="black"/>
<path fill-rule="evenodd" clip-rule="evenodd" d="M4.38531 25.3625C4.38531 25.3625 5.59131 26.1573 4.31259 26.8268C3.03388 27.4962 5.13498 27.0599 5.13498 27.0599L5.96239 26.5911C5.96239 26.5911 5.85959 25.5882 5.79691 25.5681C5.73423 25.548 4.74385 25.0391 4.74385 25.0391L4.38531 25.3625Z" fill="black"/>
<path fill-rule="evenodd" clip-rule="evenodd" d="M20.0079 31.2422C20.0079 31.2422 18.5537 33.9175 14.8504 35.6951L14.1133 33.1678L17.7463 32.2125L20.0079 31.2422Z" fill="black"/>
<path fill-rule="evenodd" clip-rule="evenodd" d="M20.4819 13.6035C19.4106 13.4147 18.3877 13.014 17.4731 12.4251L18.9775 11.6328L20.7752 13.1372L20.4819 13.6035Z" fill="black"/>
<path fill-rule="evenodd" clip-rule="evenodd" d="M18.4086 12.9536C18.4086 12.9536 17.6338 12.4947 16.4554 13.5202C15.3673 14.468 17.175 12.2841 17.175 12.2841L18.4437 12.1562L18.6944 12.5298L18.4086 12.9536Z" fill="black"/>
<path d="M23.1446 23.4885C24.3992 23.4885 25.4163 22.4715 25.4163 21.2169C25.4163 19.9623 24.3992 18.9453 23.1446 18.9453C21.8901 18.9453 20.873 19.9623 20.873 21.2169C20.873 22.4715 21.8901 23.4885 23.1446 23.4885Z" fill="black"/>
</g>
<defs>
<clipPath id="clip0_2705_49187">
<rect width="65.5129" height="80" fill="white"/>
</clipPath>
</defs>
</svg>
