<?xml version="1.0" encoding="utf-8"?>
<!-- Generator: Adobe Illustrator 26.3.1, SVG Export Plug-In . SVG Version: 6.00 Build 0)  -->
<svg version="1.1" id="Layer_1" xmlns="http://www.w3.org/2000/svg" xmlns:xlink="http://www.w3.org/1999/xlink" x="0px" y="0px"
	 viewBox="0 0 478.5 67.3" style="enable-background:new 0 0 478.5 67.3;" xml:space="preserve">
<style type="text/css">
	.st0{fill:#FFFFFF;}
</style>
<g id="Layer_2_00000065040163222137331510000004653770703223878590_">
	<g id="Main">
		<path class="st0" d="M457,16.5c2.2,0,4.2,1.3,5.1,3.3c1.2,2.2,1.8,5.3,1.8,9.2h14.6V1.3H431v15.2h0.6c2.7,0,4.1,1.7,4.1,5V46
			c0,3.3-1.4,5-4.1,5H431v15.1h47.5V38h-14.6c0,4.2-0.6,7.4-1.8,9.6S459.2,51,457,51c-2.5,0-3.7-1.6-3.7-4.7v-6.5h7.3V27.4h-7.3
			v-6.2C453.3,18.1,454.5,16.5,457,16.5z M455.4,32.3c0.7,0,1.3,0.6,1.3,1.3c0,0.7-0.6,1.3-1.3,1.3h-9.6v21.3h24.1V43.1
			c0-0.7,0.6-1.3,1.3-1.3c0.7,0,1.3,0.6,1.3,1.3v14.4c0,0.7-0.6,1.3-1.3,1.3h-34.9c-0.7,0-1.3-0.6-1.3-1.3c0-0.7,0.6-1.3,1.3-1.3
			h6.9v-46h-6.9c-0.7,0.1-1.4-0.5-1.4-1.2c-0.1-0.7,0.5-1.4,1.2-1.4c0.1,0,0.2,0,0.2,0h34.9c0.7,0,1.3,0.6,1.3,1.3v15
			c0,0.7-0.6,1.3-1.3,1.3c-0.7,0-1.3-0.6-1.3-1.3V10.2h-24.1v22.1H455.4z"/>
		<path class="st0" d="M296.1,1.3l-20.4,64.8h16.6l4-12.6h21.4l4,12.6h16.6L317.8,1.3H296.1z M312,5.2c1.9,0,3.5,1.5,3.5,3.5
			s-1.5,3.5-3.5,3.5c-1.9,0-3.5-1.5-3.5-3.5c0,0,0,0,0,0C308.5,6.8,310.1,5.2,312,5.2z M312.7,37.7h-11.5l5.8-18.3L312.7,37.7z
			 M301.9,5.2c1.9,0,3.5,1.5,3.5,3.5s-1.5,3.5-3.5,3.5c-1.9,0-3.5-1.5-3.5-3.5c0,0,0,0,0,0C298.5,6.8,300,5.2,301.9,5.2z
			 M298.1,17.3c1.9,0,3.5,1.5,3.5,3.5c0,1.9-1.5,3.5-3.5,3.5c-1.9,0-3.5-1.5-3.5-3.5c0,0,0,0,0,0C294.6,18.9,296.1,17.4,298.1,17.3z
			 M286.5,61.1c-1.9,0-3.5-1.6-3.4-3.5s1.6-3.5,3.5-3.4c1.9,0,3.5,1.6,3.5,3.5C289.9,59.6,288.4,61.2,286.5,61.1z M290.4,48.5
			c-1.9,0-3.5-1.5-3.5-3.5c0-1.9,1.5-3.5,3.5-3.5c1.9,0,3.5,1.5,3.5,3.5c0,0,0,0,0,0C293.8,47,292.3,48.5,290.4,48.5z M294.2,36.4
			c-1.9,0-3.5-1.5-3.5-3.5c0-1.9,1.5-3.5,3.5-3.5c1.9,0,3.5,1.5,3.5,3.5c0,0,0,0,0,0C297.7,34.9,296.1,36.4,294.2,36.4z M301.4,48.5
			c-1.9,0-3.5-1.5-3.5-3.5c0-1.9,1.5-3.5,3.5-3.5c1.9,0,3.5,1.5,3.5,3.5c0,0,0,0,0,0C304.9,47,303.3,48.5,301.4,48.5z M312.4,48.5
			c-1.9,0-3.5-1.5-3.5-3.5c0-1.9,1.5-3.5,3.5-3.5c1.9,0,3.5,1.5,3.5,3.5c0,0,0,0,0,0C315.9,47,314.3,48.5,312.4,48.5L312.4,48.5z
			 M330.9,57.7c0,1.9-1.5,3.5-3.5,3.5c-1.9,0-3.5-1.5-3.5-3.5c0-1.9,1.5-3.5,3.5-3.5l0,0C329.3,54.2,330.9,55.7,330.9,57.7
			C330.9,57.7,330.9,57.7,330.9,57.7L330.9,57.7z M326.9,45.1c0,1.9-1.5,3.5-3.5,3.5c-1.9,0-3.5-1.5-3.5-3.5c0-1.9,1.5-3.5,3.5-3.5
			l0,0C325.3,41.6,326.9,43.1,326.9,45.1C326.9,45,326.9,45.1,326.9,45.1L326.9,45.1z M323.2,33c0,1.9-1.5,3.5-3.5,3.5
			c-1.9,0-3.5-1.5-3.5-3.5c0-1.9,1.5-3.5,3.5-3.5l0,0C321.7,29.5,323.2,31.1,323.2,33z M319.3,20.9c0,1.9-1.5,3.5-3.5,3.5
			c-1.9,0-3.5-1.5-3.5-3.5s1.5-3.5,3.5-3.5l0,0C317.7,17.4,319.3,18.9,319.3,20.9L319.3,20.9z"/>
		<path class="st0" d="M197.9,41.5c-0.2-0.3-0.1-0.8,0.2-1c2.6-2,4.7-4.5,6.2-7.5c1.5-2.8,2.3-6,2.3-9.2c0.1-3.6-0.7-7.1-2.3-10.3
			c-1.4-2.7-3.4-5.1-5.8-7c-2.3-1.8-4.9-3.2-7.7-4c-2.6-0.8-5.2-1.2-7.9-1.2h-30.1c-0.5,0-0.9,0.4-0.9,0.8c0,0,0,0,0,0v63.1
			c0,0.5,0.4,0.9,0.8,0.9c0,0,0,0,0,0h21c0.5,0,0.9-0.4,0.9-0.8c0,0,0,0,0,0V46.3c0-0.5,0.4-0.9,0.8-0.9c0.3,0,0.6,0.2,0.8,0.5
			l9.4,19.7c0.1,0.3,0.4,0.5,0.8,0.5h21.8c0.5,0,0.9-0.4,0.9-0.8c0-0.1,0-0.3-0.1-0.4L197.9,41.5z M195.8,60.2
			c-0.4,0.2-0.8,0.3-1.2,0.3c-0.9,0-1.8-0.5-2.2-1.3l-6.7-13.5c-0.6-1.2-0.2-2.7,1-3.4c1.2-0.6,2.7-0.2,3.4,1l0,0l6.7,13.5
			C197.5,58,197,59.5,195.8,60.2C195.8,60.2,195.8,60.2,195.8,60.2z M181.2,39.3h-8.1c-1.4,0.1-2.6-0.9-2.7-2.3
			c-0.1-1.4,0.9-2.6,2.3-2.7c0.1,0,0.3,0,0.4,0h8.1c6,0,10.9-4.9,10.9-10.9s-4.9-10.9-10.9-10.9h-15.4V58c0,1.4-1.1,2.5-2.5,2.5
			s-2.5-1.1-2.5-2.5V10c0-1.4,1.1-2.5,2.5-2.5h17.9c8.8,0,15.9,7.1,15.9,15.9S190,39.3,181.2,39.3C181.2,39.3,181.2,39.3,181.2,39.3
			L181.2,39.3z M174.7,28.1v-9.4h3.2c2.6,0.1,4.6,2.3,4.5,4.9c-0.1,2.4-2.1,4.4-4.5,4.5H174.7z"/>
		<path class="st0" d="M141.3,2.5L141.3,2.5L141.3,2.5c-0.5-0.7-1.3-1.2-2.2-1.2h-17c-0.9,0-1.7,0.4-2.2,1.2
			c-2.5,3.8-2.5,8.7,0,12.5c-2.5,3.8-2.5,8.7,0,12.5c-2.5,3.8-2.5,8.7,0,12.5c-2.5,3.8-2.5,8.7,0,12.5c-2.5,3.7-2.5,8.6-0.1,12.3
			c0.5,0.8,1.3,1.2,2.2,1.2h17c0.9,0,1.7-0.4,2.1-1.2l0,0c2.5-3.8,2.5-8.7,0-12.5c2.5-3.8,2.5-8.7,0-12.5c2.5-3.8,2.5-8.7,0-12.5
			c2.5-3.8,2.5-8.7,0-12.5c1-1.6,1.7-3.4,1.8-5.2C143.2,7.1,142.6,4.6,141.3,2.5z M122.7,52.5c-3.2-3.5-3.2-9,0-12.5
			c-0.2-0.2-0.4-0.4-0.6-0.7c0.2,0.2,0.4,0.5,0.6,0.7l15.7,12.4c2.9,3.1,3.2,7.8,0.9,11.3c-0.1,0.1-0.2,0.2-0.3,0.2l0,0L122.7,52.5
			 M122.7,27.5c-3.2-3.5-3.2-9,0-12.5c-0.2-0.2-0.4-0.4-0.6-0.7c0.2,0.2,0.4,0.5,0.6,0.7l15.7,12.3c3.2,3.5,3.2,9,0,12.5L122.7,27.5
			 M121.7,3.6c0.1-0.1,0.2-0.2,0.3-0.2h17c0.1,0,0.3,0.1,0.3,0.2c2.2,3.5,1.8,8.1-1,11.2l0,0l0,0h-0.1L121.7,3.6"/>
		<path class="st0" d="M109,53.9c-1.3-0.2-2.5-0.9-3.5-1.9c-1.3-1.4-2.1-3.1-2.5-5L91.9,1.8c-0.1-0.3-0.4-0.6-0.8-0.5h-22
			c-0.3,0-0.7,0.2-0.8,0.5L56.9,47c-0.4,1.9-1.3,3.6-2.5,5c-0.9,0.9-2.1,1.6-3.4,1.8c-0.4,0.1-0.7,0.4-0.7,0.8v10.8
			c0,0.4,0.4,0.7,0.8,0.7c0,0,0,0,0,0h22.7l0,0c0.4,0,0.7-0.3,0.8-0.7c0,0,0,0,0,0v-11c0-0.3-0.3-0.6-0.6-0.7c-1-0.2-2-0.7-2.8-1.4
			c-1.2-1.2-1.8-2.8-1.7-4.5v-1.3c0-0.4,0.4-0.7,0.8-0.7h16.3c0.4,0,0.7,0.3,0.8,0.7v1.3c0.1,1.7-0.5,3.3-1.7,4.5
			C85,53.1,84,53.6,83,53.8c-0.3,0.1-0.6,0.3-0.6,0.7v11c0,0.4,0.4,0.7,0.8,0.7h25.7c0.4,0,0.7-0.3,0.8-0.7V54.5
			C109.6,54.2,109.3,53.9,109,53.9z M102.8,52.4h-14c0.3-0.5,0.6-1.1,0.8-1.7h12.3C102.1,51.3,102.5,51.8,102.8,52.4z M96.5,30.5
			h-13l-0.6-3.1h12.8L96.5,30.5z M94.7,23.2H82.2l-0.6-3.5h12.3L94.7,23.2z M91.9,12l1,3.9H80.8L80.1,12H91.9z M81.5,33.7h-5.1
			l2.9-12.3L81.5,33.7z M70.3,4.2H90l1.1,4.4h-22L70.3,4.2z M68.3,12H79l-1,3.9H67.3L68.3,12z M66.3,19.7h10.8l-0.8,3.5H65.4
			L66.3,19.7z M64.3,27.4h11l-0.7,3.1h-11L64.3,27.4z M62.3,35.2h11l-0.2,0.8h11.3l-0.1-0.8h13.4l0.7,2.6H61.7L62.3,35.2z
			 M58.1,50.7h9.3c0.2,0.6,0.4,1.2,0.8,1.7H57.1C57.5,51.8,57.8,51.3,58.1,50.7z M72.2,58.4v1.3H52.7v-1.3H72.2z M67.2,43.8v1.3
			h-7.4l0.6-2.2h39.1l0.5,2.2H89.8v-1.3H67.2z M107.2,59.7H84.8v-1.3h22.4L107.2,59.7z"/>
		<path class="st0" d="M0,1.3v64.8h18.2v-23h29.8V24.7H18.2v-5h29.8V1.3H0z M38,11.6c0.3,0,0.6,0.1,0.8,0.3l6.5,6.6H19.1
			c-0.3,0-0.5-0.1-0.7-0.3l-6.6-6.6H38z M38,35c0.3,0,0.6,0.1,0.8,0.3l6.6,6.7H19.1c-0.3,0-0.5-0.1-0.7-0.3L11.9,35H38z M8,11.3V56
			c0,0.3-0.1,0.5-0.3,0.7l-6.6,6.6V4l6.5,6.6C7.9,10.8,8,11.1,8,11.3z"/>
		<path class="st0" d="M384.2,38.9L372,1.9l-0.2-0.6h-25.7v64.8h20.6V39l9,27.2h16.9l9-27.2v27.1h20.6V1.3h-25.7L384.2,38.9z
			 M390.3,31.7L390.3,31.7L390.3,31.7L390.3,31.7z M381.6,48.4c0.4-1.1,1-2.1,1.8-2.9l0.7,2.1c-0.6,0.5-1.4,0.9-2.1,1.2l-0.6,0.2
			L381.6,48.4z M372.3,13.4l0.6,0.3l1.1,3.2c-0.9-0.9-1.6-2-2.1-3.2l-0.2-0.6L372.3,13.4z M363.6,4.1c0.2,0.4,0.4,0.7,0.5,1.1
			l0.2,0.6l-0.6-0.2c-0.9-0.3-1.8-0.8-2.5-1.5H363.6z M358.3,19.1l-0.2,0.6c-0.9,2.3-2.7,4.1-5,5l-0.6,0.2l0.2-0.6
			c0.9-2.3,2.7-4.1,5-5L358.3,19.1z M348.9,4.1h1.8c0.1,0.1,0.1,0.3,0.2,0.4l0.2,0.6l-0.6-0.2C349.9,4.7,349.4,4.4,348.9,4.1
			L348.9,4.1z M348.9,14.1c1.2,1,2.1,2.2,2.6,3.6l0.2,0.6l-0.6-0.2c-0.8-0.3-1.6-0.7-2.2-1.3V14.1z M348.9,26.7
			c1.2,1,2.1,2.2,2.6,3.6l0.2,0.6l-0.6-0.2c-0.8-0.3-1.6-0.7-2.2-1.3V26.7z M348.9,39.4c1.5,1,2.7,2.5,3.3,4.1l0.2,0.6l-0.6-0.2
			c-1.1-0.4-2.1-1-2.9-1.8V39.4z M351.8,56.5c-1.1-0.4-2.1-1-2.9-1.8V52c1.5,1,2.7,2.5,3.3,4.1l0.2,0.6L351.8,56.5z M351.8,11.7
			l0.2-0.6c0.9-2.3,2.7-4.1,5-5l0.6-0.2l-0.2,0.6c-0.9,2.3-2.7,4.1-5,5L351.8,11.7z M352.5,37.5l0.2-0.6c0.9-2.3,2.7-4.1,5-5
			l0.6-0.2l-0.2,0.6c-0.9,2.3-2.7,4.1-5,5L352.5,37.5z M353.4,50.2c0.9-2.3,2.7-4.1,5-5l0.6-0.2l-0.2,0.6c-0.9,2.3-2.7,4.1-5,5
			l-0.6,0.2L353.4,50.2z M359.1,58.4c-0.9,2.3-2.6,4.1-4.8,5h-0.7l0.1-0.3c0.9-2.3,2.7-4.1,5-5l0.6-0.2L359.1,58.4z M364,56.7
			c-1.8-1-3.2-2.6-4-4.6l-0.2-0.6l0.6,0.2c1.4,0.5,2.7,1.4,3.6,2.6L364,56.7z M364,43.8c-2.1-0.9-3.8-2.7-4.6-4.9l-0.2-0.6l0.6,0.2
			c1.8,0.7,3.3,1.9,4.3,3.5V43.8z M364,31.2c-2.1-0.9-3.8-2.7-4.6-4.9l-0.2-0.6l0.6,0.2c1.8,0.7,3.3,1.9,4.3,3.5V31.2z M363.7,18.1
			c-2.3-0.9-4.1-2.7-5-5l-0.2-0.6l0.6,0.2c2.3,0.9,4.1,2.7,5,5l0.2,0.6L363.7,18.1z M365.3,11.8c0.9-2.3,2.7-4.1,5-5l0.3-0.1
			l0.1,0.4v0.1c-0.9,2.3-2.7,4.1-5,5l-0.6,0.2L365.3,11.8z M365.7,24.8l-0.6,0.2l0.2-0.6c0.9-2.3,2.7-4.1,5-5l0.6-0.2l-0.2,0.6
			C369.8,22,368,23.8,365.7,24.8L365.7,24.8z M371.4,33c-0.5,1.4-1.4,2.6-2.5,3.5l-0.7-2.1c0.8-0.8,1.8-1.4,2.9-1.8l0.6-0.2
			L371.4,33z M371.7,25.8l0.6,0.2c2.3,0.9,4.1,2.7,5,5l0.2,0.6l-0.6-0.2c-2.3-0.9-4.1-2.7-5-5L371.7,25.8z M372.4,39l0.6,0.2
			c2.3,0.9,4.1,2.7,5,5l0.2,0.6l-0.6-0.2c-2.3-0.9-4.1-2.7-5-5L372.4,39z M377.6,57.2c-0.9-0.3-1.7-0.8-2.4-1.4l-1.2-3.5
			c1.8,1,3.2,2.6,3.9,4.5l0.2,0.6L377.6,57.2z M378.9,38c0.3-0.8,0.8-1.6,1.3-2.3l0.6,1.9c-0.5,0.3-1,0.6-1.6,0.8l-0.6,0.2L378.9,38
			z M384.6,58.8c-0.8,2-2.2,3.6-4.1,4.6h-1.3c0.9-2.3,2.7-4.1,5-5l0.6-0.2L384.6,58.8z M384.3,47.5l1.2-3.6c0.4-0.2,0.8-0.4,1.2-0.6
			l0.6-0.2l-0.2,0.6C386.5,45.2,385.5,46.5,384.3,47.5L384.3,47.5z M390.9,57.9c-2.3-0.9-4.1-2.7-5-5l-0.2-0.6l0.6,0.2
			c2.3,0.9,4.1,2.7,5,5l0.2,0.6L390.9,57.9z M395.4,49c-0.9,1-2,1.7-3.2,2.2l-0.6,0.2l0.2-0.6c0.9-2.1,2.5-3.9,4.6-4.8L395.4,49z
			 M398.4,40l-0.1-0.4l0.3,0.1L398.4,40z M410.4,59.4c-0.6,1.6-1.6,3-3,4h-2.1v-0.1v-0.1c1-1.9,2.7-3.4,4.7-4.2l0.6-0.2L410.4,59.4z
			 M410.8,39.6l0.6,0.2c2.3,0.9,4.1,2.7,5,5l0.2,0.6l-0.6-0.2c-2.3-0.9-4.1-2.7-5-5L410.8,39.6z M416.7,58.5c-2.3-0.9-4.1-2.7-5-5
			l-0.2-0.6l0.6,0.2c2.3,0.9,4.1,2.7,5,5l0.2,0.6L416.7,58.5z M419.5,63.4h-0.6c0.2-0.3,0.4-0.6,0.6-0.8V63.4z M419.5,51.1
			c-0.5,0.3-1,0.6-1.5,0.8l-0.6,0.2l0.2-0.6c0.4-1.1,1.1-2.1,1.9-3V51.1z M419.5,38.5c-0.5,0.3-1,0.6-1.5,0.8l-0.6,0.2l0.2-0.6
			c0.4-1.1,1.1-2.1,1.9-3V38.5z M419.5,24.8c-0.7,0.5-1.4,1-2.2,1.2l-0.6,0.2l0.2-0.6c0.5-1.4,1.4-2.6,2.6-3.6V24.8z M416.9,13.1
			c0.5-1.4,1.4-2.6,2.6-3.6v2.7c-0.7,0.5-1.4,1-2.2,1.2l-0.6,0.2L416.9,13.1z M416.6,32.9l-0.6-0.2c-2.3-0.9-4.1-2.7-5-5l-0.2-0.6
			l0.6,0.2c2.3,0.9,4.1,2.7,5,5L416.6,32.9z M414.3,4.1c0.6,0.7,1.1,1.6,1.4,2.4l0.2,0.6l-0.6-0.2c-1.5-0.6-2.8-1.5-3.8-2.8H414.3z
			 M410.7,14.1c2.3,0.9,4.1,2.7,5,5l0.2,0.6l-0.6-0.2c-2.3-0.9-4.1-2.7-5-5l-0.2-0.6L410.7,14.1z M410.7,46.3l-0.2,0.6
			c-0.8,2.2-2.5,4-4.7,4.9l-0.4,0.2v-1.2v-0.1c1-1.9,2.7-3.4,4.7-4.2L410.7,46.3z M405.4,38.4v-2l0.1-0.1c1-1.4,2.4-2.5,4-3.1
			L410,33l-0.2,0.6c-0.8,1.9-2.2,3.6-4,4.6L405.4,38.4z M409.8,21c-0.9,2.3-2.7,4.1-5,5l-0.3,0.1v-0.6c0.9-2.3,2.7-4,5-4.9l0.6-0.2
			L409.8,21z M404,12.8c0.9-2.3,2.7-4.1,5-5l0.6-0.2l-0.2,0.6c-0.9,2.3-2.7,4.1-5,5l-0.6,0.2L404,12.8z M399.1,4.1h2.5
			c0.4,0.5,0.7,1.1,0.9,1.8l0.2,0.6l-0.6-0.2c-1.1-0.4-2.1-1-2.9-1.8L399,4.2L399.1,4.1z M398.1,14.1c2.3,0.9,4.1,2.7,5,5l0.2,0.6
			l-0.6-0.2c-2.3-0.9-4.1-2.7-5-5l-0.2-0.6L398.1,14.1z M398.1,26.6c1.5,0.6,2.8,1.5,3.8,2.8l-0.6,1.9c-1.6-1-2.8-2.5-3.5-4.3
			l-0.2-0.6L398.1,26.6z M397.2,33.6c-0.9,2.3-2.7,4.1-5,5l-0.6,0.2l0.2-0.6c0.9-2.3,2.7-4.1,5-5l0.6-0.2L397.2,33.6z M396.8,20.7
			c-0.8,2.1-2.3,3.7-4.3,4.7l-0.6,0.3l0.9-2.8v0c1-1.2,2.2-2,3.6-2.6l0.6-0.2L396.8,20.7z"/>
		<path class="st0" d="M272.4,25L272.4,25c-0.6-0.2-1.1-0.3-1.7-0.4l-0.5-0.1h-4.3c1.4-0.6,2.7-1.6,3.6-2.9
			c2.5-3.6,2.2-8.5-0.8-11.7C263,3.7,254,0,244.7,0c-18.6,0-33.6,15.1-33.6,33.7c0,8.9,3.6,17.5,9.9,23.8c3.1,3.1,6.9,5.6,11,7.3
			c17.2,7,36.9-1.2,44-18.4c1.7-4,2.5-8.4,2.5-12.8C278.4,29.7,276,26.3,272.4,25z M268.1,26.5c0.5,0,0.9,0,1.4,0.1
			c1,0.1,1.9,0.5,2.7,1.1c0.8,0.6,1.5,1.3,2,2.2c-0.5-0.8-1.3-1.5-2.1-2c-0.8-0.5-1.7-0.7-2.6-0.8l-2.6,0.1h-1.7h-1.2
			c-1.9,0-3.7,0-5.6,0.1h-5.6h-5.6H245c-0.2,0-0.4,0-0.7,0c-0.9,0.1-1.7,0.5-2.4,1c-0.8,0.6-1.4,1.3-1.8,2.1
			c-0.5,0.9-0.7,1.8-0.8,2.8c-0.2,2,0.5,4,1.9,5.5c-0.8-0.7-1.4-1.5-1.8-2.4c-0.8-2-0.8-4.2,0.2-6.2c0.3-0.6,0.7-1.2,1.2-1.8l0,0
			c1-1,2.3-1.6,3.7-1.8c0.3,0,0.8,0,1,0L268.1,26.5z M268.8,43l-8.5,1.6c0.6-0.5,1.2-1,1.8-1.6h5.6H268.8z M258.5,24.5H245
			c-2.2,0-4.3,0.7-6.1,2.1c-3.9,3.2-4.4,8.9-1.2,12.8c1.7,2.1,4.3,3.3,7,3.3c0.5,0,9.1,0,14.3,0c-3.7,4.1-8.9,6.4-14.4,6.3
			c-8.5,0-15.4-6.9-15.4-15.4c0-5.7,3.2-11,8.2-13.7c2.2-1.2,4.7-1.8,7.2-1.8c3.2,0,6.4,1,9.1,2.9l3.5,2.5c0.5,0.4,1,0.7,1.6,0.9
			L258.5,24.5z M260.3,10.3c0.8-0.4,2-1.4,0.1-2.8c-3.4-2-7-3.4-10.9-4.2c5.5,0.6,11,2.3,15.3,5.8c1.2,1,2.2,2.1,3,3.3
			c1.4,2.1,1.5,4.9,0.5,6.5c-2.3,3.4-6.8,4.3-10.2,2c-0.4-0.3-0.8-0.6-1.1-0.9c-3.9-3.9-9.6-5.6-15-4.4c-2.7,0.6-5.2,1.9-7.2,3.7
			c2-2,4.5-3.4,7.1-4.3C242.3,15,260.3,10.3,260.3,10.3z M214.1,32.5c0.4-9.1,5-17.6,12.4-23c4.2-3,9-5,14.1-5.8
			c-6.2,1.4-11.8,4.7-16.2,9.4c-7,7.6-9.6,17.7-7.4,26.6c1.2,3.5,4.9,1.9,4.9,1.9l2.5-0.8c2.4-1.1,2.2-2.5,2.2-3.3
			c0-0.5,0-1.1,0-2.4c0.2,1.4,0.6,7.8,5.9,11.9c3.5,2.9,8,4.4,12.6,4.1c-2.4,0.4-4.8,0.2-7.1-0.4c-2.6-0.7-5-2.1-7-3.9
			c-0.3-0.3-0.7-0.7-1-1c-0.7-0.9-1.8-1.4-2.9-1.2c0,0-4,1.3-5,1.8s-2.1,1.7-1,3.9c2.9,4.7,7,8.6,11.9,11.3
			C221.6,56.9,213.5,44.9,214.1,32.5z M241.8,63.6c-1.8-0.2-3.6-0.7-5.3-1.2c-0.6-0.2-1.1-0.4-1.7-0.6c1.7,0.3,3.4,0.1,5-0.5
			L270,48.6c3.6-4.1,5.3-9.9,5.4-15.3C276.1,51.4,259.8,66.1,241.8,63.6z"/>
		<path class="st0" d="M257.9,19.5c2.7,2.2,6.7,1.9,8.9-0.8c0.2-0.2,0.3-0.4,0.5-0.7c0.7-1.3,0.8-2.8,0.3-4.1
			c-0.4-0.6-1.2-0.8-1.8-0.4l-7.9,4.3C257.4,17.9,256.8,18.4,257.9,19.5z"/>
		<path class="st0" d="M262.5,56.6l-10.9,4.5c0,0-4.5,2.1,0.6,1h0.2c3.9-1,7.6-2.8,10.8-5.3C264.3,55.9,262.5,56.6,262.5,56.6z"/>
	</g>
</g>
</svg>
