<svg xmlns="http://www.w3.org/2000/svg" viewBox="0 0 901.59 1034.58"><defs><style>.cls-1{fill:#efc400;}.cls-2{fill:#ff7ba4;}.cls-3{fill:#ff93b1;}.cls-4{fill:#fff;}.cls-5{fill:#a42733;}</style></defs><g id="Layer_2" data-name="Layer 2"><g id="Layer_1-2" data-name="Layer 1"><ellipse cx="470.34" cy="927.67" rx="434.18" ry="94.22" transform="translate(-107.13 62.61) rotate(-6.84)"/><path class="cls-1" d="M742.31,866.39l-6.71-3.62a7.2,7.2,0,0,1-.36-12.47l6.49-4,6.5-4a7.2,7.2,0,0,1,11,5.92l.22,7.62.22,7.63A7.2,7.2,0,0,1,749,870Z"/><path d="M753.72,874.47a10.73,10.73,0,0,1-6.43-1.25L733.87,866a10.85,10.85,0,0,1-.55-18.79l13-8a10.85,10.85,0,0,1,16.54,8.93l.44,15.24a10.91,10.91,0,0,1-9.57,11.11Zm-2.14-29.58a3.66,3.66,0,0,0-1.44.52l-13,8a3.54,3.54,0,0,0,.17,6.14l13.43,7.25a3.55,3.55,0,0,0,5.23-3.23l-.44-15.24a3.48,3.48,0,0,0-1.86-3A3.64,3.64,0,0,0,751.58,844.89Z"/><path class="cls-2" d="M848.43,704.17c-13.3-16.5-31.12-28.78-45.38-44.1-2.11-2.27-6.63-4.74-8.72-7-45.69-49.24-104.65-96.64-156.73-141.5-22.12-19.06-60.16-45.09-75.53-64.12,2.32-1.12,7.27-2.28,9.55-3.44,39.82-20.26,60.21-34.47,69.79-58.6,1.39-3.49,13.19-35.07,1-68.39-7-19.31-19.55-35.59-39.36-51.23-7.56-6-13.28-10-17.88-13.19-7-4.89-14.5-13.42-20.53-19.86a65.89,65.89,0,0,0,28-20c12.41-15,19.59-23.49,23.43-35.84a136.08,136.08,0,0,0,1.58-74.05c-4.56-17.27-17.12-49.81-50-73.71-36-26.21-68.08-27.52-88.63-24-8.4,1.44-30.7,5.26-49.9,24.23-15.32,15.13-24.83,33.88-28.32,55.79a148.25,148.25,0,0,0-19.69-1.43c-24.54.17-50.46,10.25-73,28.39-.78.63-6.39,4-7.14,4.61-3.18-16.62-4.6-35.59-12.93-48.44-13.27-20.47-36.65-36.52-62.53-42.93-26.55-6.58-53.77-2.68-80.9,11.58-38.64,20.31-54,55.63-59,67.24C80.11,116.9,69.81,140.57,74,171.43c5.27,39,31.44,59.66,48.76,75.66l4,.85c19.1,17.64,41.16,29,56.2,35.37-28.53,33.07-56,73.51-56.25,116.8-.12,22.16,8.67,43.36,24.11,58.18,17.47,16.75,40.88,24.77,69.39,29C195.53,531.43,51.74,789.42,42.4,809.52c-2.18,4.68-4.7,9.34-7.15,13.84C26.76,839,18,855.18,26.31,870.43c-2.32,10.79,3.2,23.06,15.74,34.83s30.68,21.81,51.28,28.48c21,6.79,41.1,9,57.22,7a74.4,74.4,0,0,0,9.26-1.68,48,48,0,0,0,13.38.17c7.86-.95,10.87-4,17.76-9.95,5-4.26,19.94-23.81,34.34-57.4,20.54,22.48,55.74,70.85,70.17,86.74,26.83,35.69,69.89,54.4,112,49.35a113.72,113.72,0,0,0,34.44-9.81c37.54-17.45,60.35-55.07,65.61-94.64,6.16,4.27,16.35,12.38,27.37,18.66,24.76,14.11,46.92,22.73,66,25.73a125.63,125.63,0,0,0,18.18,3.29,120.94,120.94,0,0,0,27.11-.16,114.42,114.42,0,0,0,60.89-26.64c24.5-20.87,38.08-50.07,40.35-80.61q8.43-5.48,16.9-10.91c8.8-5.66,17.9-11.51,26.8-17.38l2.84-1.88c15.95-10.54,32.45-21.43,47.45-33.59,12.75-10.34,20.08-21.65,21.81-33.62C865.16,733.2,860,718.57,848.43,704.17Z"/><path class="cls-3" d="M334.07,884.68c4.87,40.59,37.82,70.14,73.46,65.86s60.67-40.77,55.8-81.36S425.51,799,389.87,803.31,329.2,844.09,334.07,884.68ZM391,812.89c30.36-3.64,58.51,22.12,62.75,57.43s-17,67-47.39,70.64-58.51-22.12-62.75-57.43S360.66,816.54,391,812.89Z"/><path class="cls-3" d="M576.13,837.52c4.87,40.59,37.82,70.14,73.45,65.87s60.67-40.78,55.8-81.37-37.82-70.14-73.45-65.87S571.26,796.93,576.13,837.52Zm57-71.78c30.36-3.64,58.51,22.12,62.74,57.43s-17,67-47.38,70.63-58.52-22.12-62.75-57.42S602.71,769.38,633.08,765.74Z"/><path class="cls-4" d="M493,718.42a72,72,0,0,1,27.51-15.93c9.37-2.86,19.07-4.4,28.52-6.94l2.26-.76c3.72-37.88,5.59-76.95.29-114.8-1.2-8.57-3.91-18.52-9.75-25.15-9.58-10.89-22.61-4.75-33.8-.71-17,6.13-53.58,15.31-71.53,17.46-23.79,2.86-49.92,3.29-74-1.31-55.83-10.64-34.62,96.89-30.93,125.43.88,6.79.09,15.79,2.65,22.11l48.6,16.37,41.59,26.31,32.4,7.74C463.34,748.25,477.58,732.37,493,718.42Z"/><path class="cls-4" d="M441.85,96.22c-.36-2.94,1.64-10.63,5.17-15.33S463.6,65.81,463.6,65.81s21-6.44,24.69-6.42S512,63.62,513.7,64.23,530.42,72,530.42,72l15.39,11.76L559,100.66s7,13.58,7.66,24.85,1.1,28.8-4.47,39.45a120.26,120.26,0,0,1-16.63,23.47c-2.24,2.19-7.72-.53-7.72-.53s-8.94-15.74-10.57-19.19-19.3-29.28-31-42.05S461,104.8,458.77,103.73,441.85,96.22,441.85,96.22Z"/><path class="cls-4" d="M280,151.24l-3.25-9s-6.92-12.36-7.42-13.39-9.21-15.1-10.19-16.33S242.32,95.23,235,92.34s-16.54-8.73-27.66-5.86S178.75,90,169.57,96.33,149.79,113,147,117.25,136.29,136.17,134,144s-5.67,30.84-5.67,30.84,1.74,20.46,2.85,23.83,4.8,14.54,11.6,21.18,17,13.78,23.34,15.83S184,240.48,188.47,241s9.81.76,12.58,2.15,5.09,2.67,6.69,5.12,4,7.47,4,7.47l21.34-23.86s9.33-10.35,13-15.72,13.17-22.57,18.2-31.27S280,151.24,280,151.24Z"/><path d="M748,846.87l-4.13-6c.24-.17.48-.32.72-.48l.18-.11q9.39-6.1,18.83-12.13c8.88-5.7,18.07-11.59,27-17.49l2.87-1.9c16-10.52,32.48-21.4,47.33-33.41,11.18-9,17.57-18.64,19-28.53,3-20.62-13.81-37.13-28.64-51.69-2.41-2.37-4.68-4.61-6.86-6.84C780.79,643.5,733.46,600.43,692.9,564.2c-22.42-20-45.55-39.9-68.73-59Q619.06,501,614,496.7c-18.58-15.46-37.79-31.43-58.25-44.77l4-6.12c20.82,13.57,40.2,29.69,59,45.27q5.08,4.25,10.19,8.46c23.25,19.19,46.45,39.11,68.95,59.21,40.65,36.32,88.1,79.5,131.84,124.42,2.13,2.18,4.37,4.39,6.75,6.73,15.27,15,34.26,33.67,30.74,58-1.7,11.77-9,22.92-21.63,33.16-15.13,12.24-31.8,23.22-47.91,33.83l-2.87,1.89c-9,5.93-18.2,11.84-27.11,17.55q-9.41,6-18.8,12.1l-.19.13Z"/><path d="M451.53,788.33a3.65,3.65,0,0,1-4-3.11c-2.65-18.8,10.08-36.93,21.46-50.63,22.4-27,48.55-41.38,79.92-44.06,28.29-2.44,59.85,2.79,96.49,16,4.44,1.6,22.71,9,32.67,14.45a3.65,3.65,0,1,1-3.51,6.4c-9.47-5.19-27.47-12.48-31.63-14-35.63-12.81-66.18-17.9-93.39-15.56-29.34,2.52-53.84,16.08-74.93,41.45-10.43,12.54-22.1,29-19.85,44.94a3.65,3.65,0,0,1-3.1,4.12Z"/><path d="M602.86,695.44l-7.23-1.09c11.93-79.08-54.36-230.66-57.19-237.07l-.05-.12,6.74-2.82-3.37,1.41,3.35-1.46C548,460.82,615.09,614.29,602.86,695.44Z"/><path d="M406.38,1010.61C352.92,1017,299,984.88,278.05,930.12c-11.84-31-11.45-64.58,1.1-94.51s35.85-52.76,65.53-64.09a114.12,114.12,0,0,1,30.08-7,3.65,3.65,0,1,1,.68,7.27,106.67,106.67,0,0,0-28.16,6.58c-27.79,10.62-49.6,32-61.4,60.09s-12.18,59.83-1,89.08c23,60.31,88.51,91.53,146,69.59s85.45-88.86,62.42-149.17c-16-41.83-52.5-70.91-95.32-75.91a3.65,3.65,0,0,1,.85-7.25c45.53,5.31,84.34,36.17,101.29,80.55,24.47,64.07-5.42,135.22-66.63,158.6A113.5,113.5,0,0,1,406.38,1010.61Z"/><path d="M648.79,952.32a123,123,0,0,1-17.12.83c-32.45-.67-63.29-13.93-86.83-37.33-48.63-48.36-50.62-125.51-4.42-172A114.26,114.26,0,0,1,565,725.08a3.65,3.65,0,0,1,3.61,6.35,106.91,106.91,0,0,0-23,17.57c-43.36,43.6-41.39,116.12,4.39,161.64,22.2,22.07,51.26,34.58,81.83,35.21s58.85-10.64,79.84-31.74C755,870.5,753.05,798,707.27,752.46c-31.75-31.56-77-43.07-118.09-30a3.65,3.65,0,1,1-2.21-7c43.69-13.87,91.76-1.68,125.45,31.81,48.63,48.36,50.62,125.51,4.42,172A114.57,114.57,0,0,1,648.79,952.32Z"/><path d="M470.26,808.25a3.62,3.62,0,0,1-3.21-1.25c-24.92-29.25-68.94-66.2-106.74-78.25-23.93-7.62-58.63-9-77.66,12.26a3.65,3.65,0,0,1-5.44-4.88c21.34-23.81,58.07-23,85.32-14.34,39.37,12.55,83.65,49.46,110.08,80.47a3.66,3.66,0,0,1-.42,5.15A3.61,3.61,0,0,1,470.26,808.25Z"/><path d="M170.19,941.57a46.27,46.27,0,0,1-14.19-.34l1.46-7.15c7,1.42,21.57.65,31.11-7.52,5.74-4.92,32.21-47.3,73.45-141.22,39.48-89.91,22.74-293.24,22.53-295.21l7.25-.84c.24,1.93,17.57,206.38-23.09,299S200.9,925.62,193.32,932.11C186.56,937.9,177.93,940.64,170.19,941.57Z"/><path d="M147.39,943.14c-16.12,1.93-36.33-.27-57.46-7.09C69.26,929.38,51,919.28,38.52,907.6c-13.18-12.34-18.5-25.15-15-36.08,7.07-21.89,47.29-27.85,91.58-13.57,20.67,6.67,38.93,16.78,51.41,28.46,13.18,12.33,18.5,25.15,15,36.07h0C177.81,933.93,165.05,941,147.39,943.14ZM58.17,858.2c-14.5,1.74-24.93,7.06-27.67,15.57-2.57,8,2.17,18.35,13,28.5,11.71,11,29,20.48,48.65,26.83,39.05,12.59,76.77,8.54,82.39-8.86h0c2.56-8-2.18-18.35-13-28.5-11.7-11-29-20.49-48.65-26.83C92.93,858.47,73.32,856.38,58.17,858.2Z"/><path d="M24,874.63c-9.9-15.34-1.22-31.29,8-48.18,2.49-4.56,5.05-9.28,7.27-14,10.11-21.69,175.4-316.31,182.43-328.84l6.37,3.57C226.26,490.21,55.8,794.05,45.8,815.5c-2.31,5-4.93,9.78-7.47,14.44-8.47,15.58-15.79,29-8.24,40.72Z"/><path d="M303.85,969.09a3.66,3.66,0,0,1-3.23-1.27c-1.73-2.06-53.35-58.46-80.41-88a3.65,3.65,0,0,1,5.39-4.93c3.2,3.49,78.35,85.54,80.6,88.22a3.65,3.65,0,0,1-2.35,6Z"/><path d="M609.56,950.93a3.56,3.56,0,0,1-.8,0C560.41,946.1,507.28,905.79,505,904.07a3.65,3.65,0,1,1,4.44-5.8c.53.41,53.74,40.77,100,45.4a3.65,3.65,0,0,1,.07,7.26Z"/><path d="M411.79,492.23c-41.85,5-88.11,2.44-175.82-2.45-37.63-2.1-66.18-12.95-87.3-33.15-15.38-14.72-24.12-35.79-24-57.81.31-51.34,38.53-94.13,72.25-131.89,4.23-4.72,8.21-9.19,12.09-13.63,6.6-7.56,11.85-13.37,16.49-18.49,12-13.24,18-19.88,26-33.73,5.55-9.57,10.26-19.87,14.82-29.82,10.21-22.34,20.78-45.44,41.53-62.1,11.16-9,22.36-17.44,36.62-22.55A109.82,109.82,0,0,1,381,80.54c27.25-.18,52,7.82,68,14.56a159.78,159.78,0,0,1,38,22.48c32.35,26,48.14,56,52.21,64.59,3.83,7.63,6.36,14,8.6,19.69,4,10.23,7.23,18.31,16.2,29,8.61,10.22,13.89,13.91,22.64,20,4.64,3.24,10.42,7.28,18,13.27C624.43,279.75,637,296,644,315.26c12.12,33.18.32,64.65-1.06,68.13-9.58,24-28.88,41.32-68.87,61.63-44.71,22.71-95.57,37.86-155.5,46.33C416.31,491.67,414.06,492,411.79,492.23ZM367.89,88.65A95.62,95.62,0,0,0,347,93.49c-13.19,4.73-23.85,12.8-34.51,21.36-19.4,15.58-29.14,36.89-39.46,59.45-4.63,10.11-9.41,20.57-15.14,30.45-8.41,14.51-15,21.77-26.93,35-4.61,5.1-9.84,10.88-16.4,18.39-3.9,4.47-7.9,9-12.14,13.7-32.86,36.79-70.11,78.49-70.4,127.07-.12,20,7.8,39.15,21.74,52.48,19.8,18.95,46.84,29.13,82.66,31.13,92,5.14,138.15,7.72,181.16,1.64,59.11-8.35,109.23-23.27,153.22-45.61s58-39.3,65.38-57.82c1.28-3.22,12.18-32.28,1-62.93-6.63-18.17-18.07-32.94-37.06-47.89-7.45-5.86-12.89-9.67-17.69-13-8.93-6.24-14.82-10.36-24-21.32-9.75-11.57-13.3-20.57-17.41-31-2.18-5.52-4.65-11.77-8.37-19.18-3.94-8.3-19.09-37.09-50.22-62.09a152.75,152.75,0,0,0-36.26-21.46C430.74,95.35,407,87.68,381,87.84h0A116.37,116.37,0,0,0,367.89,88.65Z"/><path d="M562.75,236.45l-3.26-6.54c1.58-.79,3.38-1.46,5.29-2.18,6.57-2.48,15.57-5.86,25.07-17.32,11.57-14,16.7-27.22,20.52-39.48a128.4,128.4,0,0,0,1.53-70c-4.32-16.33-16.21-47.09-47.28-69.64-34-24.69-64-26-83.2-22.68C473.65,10,453,13.49,435.49,30.76c-15.22,15-24.26,33.89-26.87,56.15l-7.25-.85c2.8-24,12.56-44.31,29-60.5C449.52,6.68,471.8,2.86,480.19,1.43c20.55-3.53,52.62-2.22,88.72,24,32.9,23.88,45.48,56.41,50.05,73.68a135.7,135.7,0,0,1-1.62,74c-4,13-9.49,27-21.87,42-10.74,13-21.19,16.89-28.11,19.49C565.55,235.24,564,235.83,562.75,236.45Z"/><path d="M187.1,286c-13.14-5.34-43.92-17.85-66.32-38.49l-.44-.4C103,231.11,76.68,206.91,71.42,168c-4.16-30.8,6.17-54.48,11.72-67.2s20.49-47,59.19-67.27c27.18-14.25,54.42-18.16,81-11.6,25.88,6.38,49.24,22.37,62.5,42.77,9.87,15.19,16.89,35.21,19.25,54.91l-7.25.87c-2.23-18.63-8.84-37.51-18.13-51.8-12.27-18.88-34-33.71-58.12-39.66-24.77-6.12-50.29-2.42-75.83,11C109.3,59.07,95.16,91.48,89.84,103.68S74.78,138.21,78.66,167c4.9,36.34,30,59.47,46.63,74.78l.44.4c21.42,19.74,51.35,31.9,64.12,37.1Z"/><path d="M212.2,259.33a3.64,3.64,0,0,1-3.79-2.19c-3.67-8.6-6.19-11.22-15.76-12-12.16-1.06-24-4-33.33-8.23-13.85-6.3-24.95-18.52-30.47-33.54-9.89-26.9-.9-59.61,9.81-79.45C152.2,98.77,173.83,85,203,83a66.58,66.58,0,0,1,33.59,6c15.54,7.4,24.21,19.38,29.38,26.53s10.68,19.59,16.29,36.88a3.65,3.65,0,1,1-7,2.26c-5.38-16.57-10.51-28.3-15.25-34.86s-12.75-17.62-26.6-24.21a59.37,59.37,0,0,0-30-5.35c-26.48,1.83-46.11,14.29-58.38,37.05-10,18.5-18.43,48.84-9.38,73.46,4.85,13.2,14.56,23.92,26.63,29.41,8.6,3.91,19.58,6.61,30.95,7.6,13.07,1.14,17.46,6.21,21.84,16.46a3.65,3.65,0,0,1-1.93,4.79A3.53,3.53,0,0,1,212.2,259.33Z"/><path d="M540.75,197a3.65,3.65,0,0,1-2.87-6.35C542,187,550.76,178.41,554.62,172c8.9-14.88,9-29.12,9-35.2.11-18.75-5.66-34.9-16.7-46.69a90,90,0,0,0-10.33-9.45,83.66,83.66,0,0,0-22.49-12.35C504.48,64.71,496.53,63,489.83,63c-14.66,0-28,5.7-36.52,15.57A40,40,0,0,0,445,94.23a3.65,3.65,0,1,1-7-1.9,47.35,47.35,0,0,1,9.82-18.54c9.94-11.47,25.26-18.06,42-18.09,7.58,0,16.36,1.86,26.83,5.72a90.82,90.82,0,0,1,24.46,13.44,99.39,99.39,0,0,1,11.16,10.21c12.34,13.19,18.8,31.07,18.68,51.73,0,6.1-.13,22.31-10.06,38.91-5.39,9-17.63,19.95-18.15,20.42A3.64,3.64,0,0,1,540.75,197Z"/><ellipse class="cls-4" cx="630.58" cy="833.4" rx="73.91" ry="80.09" transform="translate(-94.76 81.02) rotate(-6.84)"/><path d="M640.55,916.55c-42.46,5.09-81.48-28.06-87-73.91s24.57-87.29,67-92.39,81.48,28.07,87,73.92S683,911.46,640.55,916.55Zm-19.07-159c-38.47,4.61-65.67,42.41-60.66,84.26s40.4,72.14,78.86,67.53,65.68-42.42,60.66-84.26S659.94,752.89,621.48,757.51Z"/><path d="M559.3,510.15s-7.37-47-69-29.92c43.61-22.72,55.34-21.38,55.34-21.38Z"/><path d="M294.68,546.58s-10.44-46.45,53.19-53.2c-48.91-5.1-59.32.45-59.32.45Z"/><path d="M196.77,542.74s26.53-56.23,67.84-51.57c-48.91-5.1-39.82-5.82-39.82-5.82Z"/><path d="M192.44,272.05s17.81-24.74-3-27.38c7.73-3.59,27,9.06,27,9.06Z"/><path d="M287.24,132.06s-8.64,8.76-13.32-1.35c-4.93-10.66,3.69,15.45,3.69,15.45l5.64-.68Z"/><path d="M452,97.19s-6.59-8.66.1-17.56c7.06-9.39-10.29,12.69-10.29,12.69L445,97Z"/><path d="M534.8,173.94s7.54,14.09,17,2.12c6.95-8.77-7.14,12.73-7.14,12.73l-4.66-1.5Z"/><path class="cls-4" d="M291.07,488.17c-8.92-1.46-17.68-3.73-25.52-8.06-10.54-5.82-19.37-14.26-27.1-23.4-22.21-26.45-25.82-69.5-.94-94.73,18.75-19,44.41-17.35,68.11-11.68a333.35,333.35,0,0,0,78.44,9.37c43.78-.14,87.72-9.89,126.21-31.93,12.32-7.05,24-15.29,36.74-21.55s26.71-10.52,40.73-8.95c19.12,2.14,36.8,15.72,45.28,34.22,20.27,44.21-13.72,84.22-45.65,107-22.27,15.91-47,24.15-72.67,31.65-37.64,11-77,15.75-115.87,19.58-29.38,2.89-58.63,4.12-88.05.82C304.33,489.87,297.66,489.24,291.07,488.17Z"/><path d="M429.81,490.08c-10.53,1.26-20.79,2.32-30.62,3.28-35.41,3.49-62.8,3.74-88.81.82l-2.73-.28c-5.61-.59-11.41-1.19-17.17-2.13h0c-11-1.79-19.49-4.48-26.7-8.46-9.61-5.31-18.81-13.24-28.12-24.24-21.9-26.09-28.41-71.6-.75-99.66,21.28-21.59,51-17.57,71.56-12.66A330.36,330.36,0,0,0,384.05,356c45.72-.15,88.74-11,124.41-31.45,4.57-2.62,9.17-5.47,13.61-8.22,7.49-4.65,15.24-9.45,23.32-13.44,15.68-7.72,29.66-10.76,42.75-9.3,20.2,2.26,39.12,16.52,48.2,36.33C646,351,644.87,372.8,633,394.74c-11.43,21.11-30,37.06-43.48,46.73-23.25,16.61-49.2,25-73.78,32.19C487.23,482,457.59,486.75,429.81,490.08Zm-138.15-5.52c5.55.91,11.24,1.5,16.75,2.07l2.76.29c25.5,2.86,52.42,2.6,87.31-.82,35.45-3.49,76.51-8.16,115.19-19.45,24-7,49.26-15.18,71.58-31.12C601.41,424,652.38,382.45,629.7,333c-8-17.53-24.67-30.13-42.37-32.11-11.66-1.31-24.32,1.5-38.71,8.59-7.76,3.83-15.35,8.54-22.7,13.09-4.49,2.79-9.14,5.68-13.83,8.36-36.77,21-81,32.26-128,32.41a337,337,0,0,1-79.3-9.47c-20.39-4.87-46.18-8.06-64.66,10.69-24.78,25.13-18.7,66.19,1.14,89.82,8.71,10.3,17.24,17.68,26.06,22.55,6.46,3.57,14.19,6,24.35,7.65Z"/><path d="M554.89,695.15l-7.26-.71c3.12-31.78,6-73.46.3-114-1-7.14-3.35-17-8.87-23.24-6.63-7.54-15-5.19-27-.74l-2.85,1c-16.77,6.06-53.45,15.39-72.34,17.66-27.33,3.27-53.31,2.81-75.13-1.35-7.77-1.49-14.08-.29-19.28,3.64-11,8.3-14.13,26.92-15,37.29-1,12-.85,24.92.63,41.88s3.64,36.9,8.29,56a25.62,25.62,0,0,0,1.17,3.8l-6.76,2.73a32.31,32.31,0,0,1-1.5-4.8c-4.76-19.56-7-39.82-8.46-57.07-1.53-17.4-1.73-30.71-.64-43.16,1.23-14.13,5.34-33,17.9-42.47,6.84-5.18,15.27-6.85,25.05-5,21.09,4,46.3,4.46,72.89,1.27,18.13-2.17,54.65-11.47,70.73-17.27l2.79-1c10.93-4.06,24.54-9.12,35,2.76,5.39,6.12,9,15.22,10.62,27.05C560.94,620.73,558.05,663,554.89,695.15Z"/><path class="cls-5" d="M434.51,291.58a47.51,47.51,0,0,0,5.25-1.34c6.63-2.09,12.77-5.58,19.49-7.36s14.08-1.72,20.36,1.25,11.2,9.14,11.66,16.07c.34,5.13-1.68,10.13-4.17,14.63-7.39,13.4-19.48,24.35-33.92,29.43a54.87,54.87,0,0,1-29.45,1.92c-10.39-2.22-18.43-7.49-25.36-15.44a66.29,66.29,0,0,1-7.69-10.84c-2.82-5-5-10.68-3.93-16.28,1.17-5.94,6.17-10.76,12-12.38,7.05-1.95,14.48.36,21.76,1A49.06,49.06,0,0,0,434.51,291.58Z"/><path d="M441.94,350.61a58.24,58.24,0,0,1-19-.86c-10.63-2.27-19.58-7.71-27.35-16.61a70.48,70.48,0,0,1-8.11-11.43c-4-7.08-5.44-13.23-4.34-18.8,1.4-7.05,7.27-13.15,14.62-15.19,5.86-1.62,11.65-.73,17.25.14,2,.31,3.93.61,5.83.79A45,45,0,0,0,433.8,288h0a46.1,46.1,0,0,0,4.86-1.24c2.83-.89,5.55-2.05,8.44-3.28a85.64,85.64,0,0,1,11.21-4.13c8.17-2.16,16.28-1.63,22.86,1.48C489,284.54,494.39,292,494.92,300c.44,6.61-2.43,12.66-4.62,16.63-8,14.58-21.13,25.92-35.91,31.12A59.21,59.21,0,0,1,441.94,350.61Zm-39.71-56.33a16.23,16.23,0,0,0-2.5.48c-4.75,1.32-8.53,5.16-9.4,9.57-.75,3.77.4,8.28,3.52,13.77a63,63,0,0,0,7.27,10.24c6.78,7.77,14.21,12.31,23.37,14.26A51.5,51.5,0,0,0,452,340.82c13.11-4.61,24.76-14.73,32-27.76,2.77-5,4-9,3.72-12.62-.35-5.23-4.2-10.46-9.59-13-5-2.37-11.36-2.73-17.86-1a75.89,75.89,0,0,0-10.22,3.8c-2.92,1.24-5.94,2.52-9.1,3.51a49.21,49.21,0,0,1-5.65,1.44h0a52.36,52.36,0,0,1-15,.76c-2.12-.2-4.22-.52-6.26-.84C409.8,294.44,405.88,293.84,402.23,294.28Z"/><path d="M441.57,308.19a2.43,2.43,0,0,1-2.62-1.71c-.4-1.35-.69-2.13-.7-2.17a2.43,2.43,0,0,1,4.56-1.7s.34.93.8,2.46a2.43,2.43,0,0,1-1.62,3A2.1,2.1,0,0,1,441.57,308.19Z"/><path d="M444.61,325.6l-.17,0a2.43,2.43,0,0,1-2.55-2.32c-.07-1.5-.2-3.05-.39-4.61-.27-2.2-.64-4.45-1.13-6.68a2.44,2.44,0,1,1,4.76-1c.52,2.38.92,4.78,1.2,7.13.2,1.68.34,3.35.42,5A2.43,2.43,0,0,1,444.61,325.6Z"/><path d="M444.41,334a2.45,2.45,0,0,1-2.71-2.67q.12-1.15.18-2.31a2.43,2.43,0,0,1,4.86.26c0,.85-.11,1.7-.2,2.55A2.44,2.44,0,0,1,444.41,334Z"/><path d="M445.42,506.21a2.44,2.44,0,0,1-2.65-1.83c-.36-1.42-.6-2.21-.6-2.24a2.43,2.43,0,0,1,4.66-1.4s.26.87.66,2.45a2.44,2.44,0,0,1-1.76,3Z"/><path d="M449.44,543.57a2.48,2.48,0,0,1-2.73-2.5,131.62,131.62,0,0,0-.91-20c-.31-2.54-.68-5.1-1.12-7.61a2.43,2.43,0,0,1,4.79-.84c.46,2.6.85,5.24,1.16,7.87a137.51,137.51,0,0,1,.95,20.78A2.44,2.44,0,0,1,449.44,543.57Z"/><path d="M448.42,555.39a2.22,2.22,0,0,1-.63,0,2.44,2.44,0,0,1-2.07-2.76c.11-.79.21-1.58.31-2.36a2.43,2.43,0,1,1,4.83.57c-.1.82-.2,1.65-.32,2.48A2.44,2.44,0,0,1,448.42,555.39Z"/><path d="M450.06,372.77a2.43,2.43,0,0,1-2.61-1.72c-.44-1.44-.7-2.22-.71-2.25a2.43,2.43,0,1,1,4.62-1.54s.28.83.75,2.38a2.44,2.44,0,0,1-1.63,3A3.15,3.15,0,0,1,450.06,372.77Z"/><path d="M460,454.05a2,2,0,0,1-.43,0,2.44,2.44,0,0,1-2.29-2.58,219.62,219.62,0,0,0-1.35-39,260.89,260.89,0,0,0-5.45-30.23,2.44,2.44,0,0,1,4.74-1.14,268.06,268.06,0,0,1,5.55,30.79,224.64,224.64,0,0,1,1.37,39.87A2.43,2.43,0,0,1,460,454.05Z"/><path d="M458.58,468.18a2.29,2.29,0,0,1-.64,0,2.45,2.45,0,0,1-2.07-2.76c.12-.79.22-1.58.32-2.38a2.44,2.44,0,0,1,4.84.61l-.33,2.46A2.43,2.43,0,0,1,458.58,468.18Z"/><path class="cls-1" d="M283.73,798.35l7.59.67a7.2,7.2,0,0,1,5.26,11.31l-4.38,6.24-4.38,6.24a7.19,7.19,0,0,1-12.42-1.1l-3.22-6.91L269,807.88a7.21,7.21,0,0,1,7.17-10.21Z"/><path d="M283.27,829.45a11,11,0,0,1-2.3,0,10.77,10.77,0,0,1-8.89-6.24l-6.43-13.83A10.85,10.85,0,0,1,276.45,794l15.19,1.34a10.85,10.85,0,0,1,7.93,17l-8.76,12.48A10.73,10.73,0,0,1,283.27,829.45ZM275,801.32a3.56,3.56,0,0,0-2.74,5l6.43,13.83a3.54,3.54,0,0,0,6.12.54l8.76-12.48a3.55,3.55,0,0,0-2.59-5.57l-15.19-1.35A4.14,4.14,0,0,0,275,801.32Z"/><path class="cls-1" d="M358.94,752.72l5.42,5.37a7.2,7.2,0,0,1-3.17,12.06l-7.36,2-7.36,2a7.2,7.2,0,0,1-8.86-8.78l1.94-7.37,1.94-7.38a7.2,7.2,0,0,1,12-3.29Z"/><path d="M345.82,778a10.87,10.87,0,0,1-11.74-13.55L338,749.71a10.85,10.85,0,0,1,18.13-5l10.84,10.73a10.86,10.86,0,0,1-4.78,18.18l-14.72,4A11.18,11.18,0,0,1,345.82,778ZM348,749a2.67,2.67,0,0,0-.52.1,3.47,3.47,0,0,0-2.5,2.52l-3.88,14.75a3.56,3.56,0,0,0,4.37,4.33l14.71-4a3.55,3.55,0,0,0,1.57-6L351,750A3.43,3.43,0,0,0,348,749Z"/><path class="cls-1" d="M445.48,763.45l1.29,7.52a7.2,7.2,0,0,1-9.59,8L430,776.3l-7.15-2.64a7.2,7.2,0,0,1-2.11-12.29l5.86-4.87,5.86-4.88a7.2,7.2,0,0,1,11.7,4.32Z"/><path d="M441,783a10.9,10.9,0,0,1-5.06-.61l-14.32-5.28a10.84,10.84,0,0,1-3.18-18.52l11.73-9.76a10.84,10.84,0,0,1,17.63,6.51l2.59,15A10.9,10.9,0,0,1,441,783Zm-4.34-29.36a3.43,3.43,0,0,0-1.82.81l-11.73,9.75a3.55,3.55,0,0,0,1,6.06l14.31,5.28a3.55,3.55,0,0,0,4.73-3.93l-2.59-15a3.47,3.47,0,0,0-2.26-2.72A3.8,3.8,0,0,0,436.64,753.62Z"/><path class="cls-1" d="M152.35,957l-5.51-5.26a7.2,7.2,0,0,1,2.94-12.12l7.32-2.15,7.32-2.14a7.19,7.19,0,0,1,9,8.6l-1.8,7.42-1.8,7.41a7.21,7.21,0,0,1-12,3.51Z"/><path d="M164.09,967.79a10.69,10.69,0,0,1-8.74-2.93l-11-10.53a10.85,10.85,0,0,1,4.43-18.27l14.64-4.29a10.85,10.85,0,0,1,13.6,13l-3.6,14.82a10.75,10.75,0,0,1-7.49,7.85A10.58,10.58,0,0,1,164.09,967.79Zm-9.21-13.48,5.51,5.27a3.56,3.56,0,0,0,5.9-1.73l3.6-14.83a3.55,3.55,0,0,0-4.44-4.24l-14.64,4.29a3.55,3.55,0,0,0-1.45,6Z"/><path class="cls-1" d="M74.93,946.43l-1.45-7.49a7.2,7.2,0,0,1,9.41-8.18l7.21,2.49,7.21,2.49A7.2,7.2,0,0,1,99.69,948l-5.76,5-5.76,5a7.2,7.2,0,0,1-11.79-4.06Z"/><path d="M84.76,963.34a10.92,10.92,0,0,1-4.85-.53,10.73,10.73,0,0,1-7.11-8.2l-2.91-15a10.86,10.86,0,0,1,14.19-12.33l14.42,5a10.86,10.86,0,0,1,3.58,18.46l-11.51,10A10.9,10.9,0,0,1,84.76,963.34ZM80.12,934a3.65,3.65,0,0,0-1.9.86,3.49,3.49,0,0,0-1.16,3.36l2.91,15a3.54,3.54,0,0,0,5.81,2l11.51-10a3.54,3.54,0,0,0-1.17-6l-14.42-5A3.62,3.62,0,0,0,80.12,934Z"/><path class="cls-1" d="M8.24,889.07l3.68-6.68a7.2,7.2,0,0,1,12.47-.26l3.95,6.53,3.94,6.53a7.19,7.19,0,0,1-6,10.92l-7.63.15-7.63.16a7.2,7.2,0,0,1-6.45-10.67Z"/><path d="M27.45,909.68a8.29,8.29,0,0,1-1.11.08l-15.25.31A10.86,10.86,0,0,1,1.36,894l7.36-13.36a10.85,10.85,0,0,1,18.79-.38l7.9,13.06a10.85,10.85,0,0,1-8,16.38Zm-16-18.85-3.68,6.68a3.55,3.55,0,0,0,3.18,5.26l15.25-.31a3.55,3.55,0,0,0,3-5.38L21.26,884a3.54,3.54,0,0,0-6.14.13Z"/><path class="cls-1" d="M872.75,773.9l-7.6.63a7.2,7.2,0,0,1-7.1-10.25l3.25-6.9,3.26-6.9a7.2,7.2,0,0,1,12.43-1l4.34,6.26,4.35,6.27a7.2,7.2,0,0,1-5.32,11.28Z"/><path d="M881.07,776.87l-.41,0-15.21,1.26a10.85,10.85,0,0,1-10.7-15.45l6.51-13.79A10.85,10.85,0,0,1,880,747.37l8.69,12.54a10.86,10.86,0,0,1-7.61,17Zm-8.62-6.61,7.6-.63a3.46,3.46,0,0,0,2.92-2,3.51,3.51,0,0,0-.29-3.54L874,751.54a3.55,3.55,0,0,0-6.13.5l-6.51,13.8a3.55,3.55,0,0,0,3.5,5Z"/><path class="cls-1" d="M803.4,828.11l-6.81-3.43a7.2,7.2,0,0,1-.71-12.45l6.37-4.19,6.38-4.18a7.2,7.2,0,0,1,11.14,5.61l.43,7.61.44,7.62a7.2,7.2,0,0,1-10.43,6.84Z"/><path d="M814.73,835.9a10.76,10.76,0,0,1-6.16-1.1L795,827.94a10.84,10.84,0,0,1-1.08-18.76l12.75-8.37a10.84,10.84,0,0,1,16.79,8.45l.88,15.23a10.75,10.75,0,0,1-4.88,9.69A11,11,0,0,1,814.73,835.9Zm-9.69-11,6.82,3.43A3.55,3.55,0,0,0,817,824.9l-.87-15.22a3.55,3.55,0,0,0-5.49-2.77l-12.75,8.37a3.56,3.56,0,0,0,.35,6.14Z"/><path class="cls-1" d="M537.58,725.89l7.35,2A7.19,7.19,0,0,1,548.09,740l-5.42,5.36-5.43,5.37a7.2,7.2,0,0,1-12-3.3L523.28,740l-1.93-7.38a7.2,7.2,0,0,1,8.87-8.76Z"/><path d="M533.51,756.36a10.91,10.91,0,0,1-11.83-8l-3.86-14.76a10.85,10.85,0,0,1,13.36-13.22l14.72,4a10.85,10.85,0,0,1,4.76,18.18l-10.85,10.72A10.74,10.74,0,0,1,533.51,756.36Zm-5.63-29.07a3.61,3.61,0,0,0-2.06,1,3.47,3.47,0,0,0-.93,3.42l3.86,14.76a3.55,3.55,0,0,0,5.93,1.62l10.84-10.73a3.46,3.46,0,0,0,.94-3.42,3.5,3.5,0,0,0-2.49-2.52l-14.72-4A3.48,3.48,0,0,0,527.88,727.29Z"/><path class="cls-1" d="M627.1,693.78l4.24,6.35a7.2,7.2,0,0,1-5.52,11.18l-7.61.5-7.61.49a7.19,7.19,0,0,1-6.92-10.37l3.37-6.84,3.37-6.84a7.2,7.2,0,0,1,12.45-.81Z"/><path d="M626.67,714.9l-.61.05-15.22,1a10.85,10.85,0,0,1-10.44-15.63l6.75-13.68a10.85,10.85,0,0,1,18.76-1.23l8.47,12.69a10.85,10.85,0,0,1-7.71,16.8Zm-10.21-27a3.45,3.45,0,0,0-2.76,2L607,703.55a3.55,3.55,0,0,0,3.41,5.11l15.22-1a3.54,3.54,0,0,0,2.72-5.51l-8.47-12.68a3.48,3.48,0,0,0-3.18-1.57Z"/><path d="M350.59,229.22c7.43-6.7,12.53-17,10.59-27.17a.62.62,0,0,1,1.14-.45,28.08,28.08,0,0,1,3.19,8.25c1.92,9.77-.5,20.24-5.57,28.77a6.84,6.84,0,1,1-9.35-9.4Z"/><path d="M355.79,224.54c8.59-5.12,15.59-14.18,15.68-24.58a.62.62,0,0,1,1.21-.22,28.24,28.24,0,0,1,1.52,8.71c0,10-4.44,19.76-11.08,27.14a6.84,6.84,0,1,1-7.33-11.05Z"/><path d="M339.93,272.37c-5.08,8.62-6.88,19.93-2,29.09a.62.62,0,0,1-.95.77,28.18,28.18,0,0,1-5.52-6.91c-4.75-8.75-5.58-19.47-3.3-29.13a6.84,6.84,0,1,1,11.74,6.18Z"/><path d="M336.37,278.39c-6.66,7.46-10.63,18.2-7.6,28.15a.62.62,0,0,1-1.09.56,28.1,28.1,0,0,1-4.06-7.85c-3-9.5-1.68-20.18,2.45-29.21a6.84,6.84,0,1,1,10.3,8.35Z"/><path class="cls-1" d="M707.74,719.8l-.07,7.62a7.19,7.19,0,0,1-10.85,6.14l-6.57-3.87-6.57-3.87a7.2,7.2,0,0,1,.11-12.47l6.64-3.76,6.64-3.75a7.2,7.2,0,0,1,10.74,6.33Z"/><path d="M701.74,738.15a10.76,10.76,0,0,1-6.78-1.44L681.82,729a10.85,10.85,0,0,1,.17-18.79l13.28-7.51a10.85,10.85,0,0,1,16.19,9.54l-.13,15.26a10.88,10.88,0,0,1-9.59,10.69Zm-1.54-29.58a3.48,3.48,0,0,0-1.34.45l-13.27,7.51a3.55,3.55,0,0,0-.06,6.14l13.14,7.75a3.55,3.55,0,0,0,5.35-3l.14-15.25a3.5,3.5,0,0,0-1.75-3.09A3.59,3.59,0,0,0,700.2,708.57Z"/><path d="M239.93,849.25s-17.38,15.14,6.13,47.44c-13.08-2.38-23.19-15.53-23.19-15.53Z"/><path d="M567.81,460.1s-20.29-3.63-10,25.08c8.32,23.21-12.32-23.39-12.32-23.39l17.27-8.56Z"/><path d="M267,491.29s18.5-1.7,19.45,22.31c1,24.63,3-26.27,3-26.27l-19.19-1.73Z"/><path d="M341.31,230.76a14.33,14.33,0,0,0,4.21,2,7.19,7.19,0,0,0,4.56,0,10.32,10.32,0,0,0,2.92-2q12.17-10.56,25.18-20.09a6.48,6.48,0,0,1,2.68-1.38c4.2-.68,9.93,3.07,9.86,7.62s-4.62,7.22-7.64,9.71c-4.61,3.79-8.89,8-13.41,11.84-5.68,4.9-14.35,10-5.36,16.72a155,155,0,0,1,12.52,10.36c2.93,2.69,7,5,8.81,8.72a9,9,0,0,1-2.25,10.25c-3.55,3-7.42,0-10.11-2.71A102.06,102.06,0,0,0,349.8,264c-1.57-.87-3.12-1.56-4.9-.75a9.24,9.24,0,0,0-2.89,2.36c-3.77,4.2-6.48,9.17-9,14.19-2.25,4.56-3.95,11.17-8.36,14.22-4.57,3.17-10.78-.75-9-6.33,2.57-8.27,7.18-15.73,11.79-23.05,2.42-3.85,5.45-8.15,4.5-12.59-.55-2.62-5-10.34-8.7-14.18a161.75,161.75,0,0,1-11.84-13.75c-1.52-2-3.09-4.11-3.26-6.59-.26-3.92,4.77-12.15,9.42-10.63,3.16,1,5.34,4.19,7.51,6.52,2.65,2.85,5.39,5.6,7.86,8.61S338.07,228.54,341.31,230.76Z"/><path d="M322.3,298.75a9.64,9.64,0,0,1-6.86-1.78,9.22,9.22,0,0,1-3.28-10.33c2.79-9,7.79-16.92,12.19-23.92l.54-.85c2-3.13,4-6.37,3.48-9-.37-1.74-4.36-8.87-7.76-12.4a164.67,164.67,0,0,1-12.11-14.06c-1.58-2.06-3.76-4.89-4-8.57-.27-4,2.58-9.69,6.35-12.62a8.37,8.37,0,0,1,7.84-1.73c3.49,1.15,5.9,3.91,7.83,6.14.41.47.82.94,1.23,1.38.71.77,1.43,1.53,2.16,2.29,1.95,2.06,4,4.2,5.85,6.49l.71.87c2.16,2.66,4.39,5.4,6.91,7.12h0a10.55,10.55,0,0,0,3.14,1.52,3.68,3.68,0,0,0,2.25.1A7.64,7.64,0,0,0,350.6,228c8.16-7.08,16.71-13.91,25.42-20.29a9.84,9.84,0,0,1,4.26-2,12.91,12.91,0,0,1,10.15,3.21,10.48,10.48,0,0,1,3.94,8.08c-.08,5.53-4.45,8.93-7.63,11.41-.47.36-.92.71-1.35,1.06-2.61,2.15-5.19,4.49-7.68,6.75-1.84,1.66-3.73,3.38-5.66,5-.71.61-1.47,1.24-2.24,1.86-2.3,1.87-5.77,4.7-5.73,6.27,0,.26.19,1.24,2.41,2.89a160,160,0,0,1,12.81,10.6c.74.68,1.61,1.36,2.52,2.09,2.58,2,5.49,4.34,7.11,7.75a12.67,12.67,0,0,1-3.21,14.63c-2.49,2.07-7.76,4.43-15-3A98.32,98.32,0,0,0,348,267.23c-1.2-.66-1.5-.69-1.63-.62a6.5,6.5,0,0,0-1.69,1.47c-3.51,3.91-6.11,8.74-8.4,13.37-.51,1-1,2.24-1.54,3.52-1.8,4.31-3.83,9.19-8,12.08A9.86,9.86,0,0,1,322.3,298.75Zm-5.94-88.35a2.34,2.34,0,0,0-1,.54c-2.19,1.7-3.63,5.2-3.56,6.38.1,1.46,1.44,3.2,2.52,4.6a156.88,156.88,0,0,0,11.57,13.45c3.83,4,8.87,12.32,9.64,15.95,1.19,5.58-1.94,10.51-4.45,14.46l-.53.83c-4.16,6.62-8.88,14.13-11.39,22.2a1.87,1.87,0,0,0,.63,2.27,2.38,2.38,0,0,0,2.84,0c2.42-1.68,3.95-5.34,5.42-8.89.56-1.32,1.13-2.69,1.74-3.94,2.52-5.1,5.42-10.45,9.52-15a12.47,12.47,0,0,1,4.1-3.24c3.6-1.64,6.69.06,8.17.87a105.35,105.35,0,0,1,24.33,18.42c3.65,3.71,4.75,2.8,5.17,2.46a5.39,5.39,0,0,0,1.28-5.87c-.89-1.88-2.91-3.47-5-5.16-1-.78-2-1.58-2.93-2.44a153.37,153.37,0,0,0-12.23-10.12c-3.48-2.6-5.29-5.49-5.36-8.59-.11-5.14,4.43-8.83,8.43-12.09.71-.58,1.42-1.16,2.08-1.73,1.86-1.6,3.72-3.29,5.52-4.92,2.56-2.32,5.21-4.72,8-7,.47-.39,1-.78,1.49-1.19,2.35-1.83,4.79-3.72,4.82-5.75a3.46,3.46,0,0,0-1.42-2.44,6,6,0,0,0-4.2-1.53,7.05,7.05,0,0,0-1.11.72c-8.55,6.27-16.94,13-24.95,19.91a13.51,13.51,0,0,1-4,2.65,10.84,10.84,0,0,1-6.87.11,18.12,18.12,0,0,1-5.28-2.52c-3.38-2.31-6-5.48-8.45-8.54l-.7-.86c-1.7-2.08-3.55-4-5.49-6.08l-2.22-2.35c-.46-.5-.92-1-1.39-1.56-1.47-1.71-3-3.47-4.58-4T316.36,210.4Z"/><ellipse class="cls-1" cx="519.21" cy="235.31" rx="41" ry="61.4" transform="translate(-38.34 116.61) rotate(-12.36)"/><path d="M530.18,299.35C507,302.13,483,278.48,475.59,244.87c-3.67-16.72-2.74-33.44,2.6-47.09,5.54-14.16,15.16-23.39,27.09-26,24.06-5.26,49.87,18.95,57.54,54h0c7.68,35-5.64,67.83-29.69,73.1A29.78,29.78,0,0,1,530.18,299.35Zm-21-120.83a23.59,23.59,0,0,0-2.33.39c-9.46,2.07-17.22,9.72-21.85,21.53-4.82,12.32-5.62,27.55-2.27,42.87,6.82,31.1,28.73,52.82,48.85,48.41s30.93-33.3,24.12-64.4h0C549.13,197.41,528.62,176.18,509.17,178.52Z"/><path d="M526.59,276.83c-13.88,1.66-28.15-13.66-33-35.9-5.07-23.12,2.22-43.7,16.6-46.85s29.61,12.49,34.68,35.61h0c5.06,23.13-2.23,43.71-16.61,46.86C527.69,276.67,527.14,276.76,526.59,276.83Zm-13.9-75.65c-.31,0-.62.09-.93.15-10,2.19-15,19.59-10.94,38s15.85,32.13,25.83,30,15-19.59,10.94-38C533.68,213.44,522.45,200,512.69,201.18Z"/><path d="M509.27,229.24A2.44,2.44,0,0,1,508,229l-1-.46a2.43,2.43,0,1,1,1.87-4.49s.44.18,1.2.53a2.44,2.44,0,0,1-.74,4.63Z"/><path d="M525.57,242a2.41,2.41,0,0,1-2.31-1.06c-2.72-4.05-7.1-7.24-10.3-9.2a2.44,2.44,0,1,1,2.55-4.15c5.25,3.23,9.22,6.8,11.79,10.64a2.43,2.43,0,0,1-.66,3.37A2.3,2.3,0,0,1,525.57,242Z"/><path d="M528.31,248.61a2.44,2.44,0,0,1-2.69-2,8.73,8.73,0,0,0-.21-1,2.44,2.44,0,1,1,4.72-1.2,13.19,13.19,0,0,1,.29,1.39,2.42,2.42,0,0,1-2,2.8Z"/><path d="M515,250.8l-.26,0a2.43,2.43,0,0,1-2.46-2.41s0-.48,0-1.33a2.44,2.44,0,0,1,4.87.18c0,.68,0,1.07,0,1.1A2.45,2.45,0,0,1,515,250.8Z"/><path d="M515.59,243.64a2.09,2.09,0,0,1-.66,0,2.43,2.43,0,0,1-2-2.77c.91-6.09,2.65-11.14,5.17-15a2.44,2.44,0,0,1,4.08,2.66c-2.66,4.08-3.88,9.36-4.44,13.08A2.43,2.43,0,0,1,515.59,243.64Z"/><path d="M524.4,225.19a2.43,2.43,0,0,1-1.76-4.35c.37-.29.76-.56,1.16-.82a2.44,2.44,0,0,1,2.63,4.1c-.29.19-.57.38-.84.59A2.47,2.47,0,0,1,524.4,225.19Z"/><ellipse class="cls-4" cx="392.24" cy="886.51" rx="73.62" ry="78.77" transform="translate(-102.78 53.02) rotate(-6.84)"/><path d="M402.05,968.34c-42.3,5.08-81.12-27.51-86.54-72.63s24.61-86,66.91-91,81.13,27.51,86.54,72.64S444.36,963.27,402.05,968.34ZM383.29,811.92c-38.3,4.6-65.46,41.79-60.52,82.92s40.11,70.84,78.41,66.25,65.46-41.79,60.53-82.92S421.6,807.33,383.29,811.92Z"/></g></g></svg>